ISO-10303-21;
HEADER;
/* Generated by software containing ST-Developer
 * from STEP Tools, Inc. (www.steptools.com) 
 */
/* OPTION: using custom renumber hook */

FILE_DESCRIPTION(
/* description */ ('STEP AP242 Edition 2',
'CAx-IF Rec.Pracs.---Representation and Presentation of Product Manufa
cturing Information (PMI)---4.0---2014-10-13',
'CAx-IF Rec.Pracs.---3D Tessellated Geometry---0.4---2014-09-14','2;1',
'CAx-IF Rec.Pracs.---User Defined Attributes---1.5---2016-08-15'),
/* implementation_level */ '2;1');

FILE_NAME(
/* name */ 'Cases - OpenPaw Case Top v9',
/* time_stamp */ '2026-08-04T01:29:08Z',
/* author */ (''),
/* organization */ (''),
/* preprocessor_version */ 'ST-DEVELOPER v20',
/* originating_system */ 'ONSHAPE BY PTC INC, 1.218',
/* authorisation */ '  ');

FILE_SCHEMA (('AP242_MANAGED_MODEL_BASED_3D_ENGINEERING_MIM_LF { 1 0 10303 442 3 1 4 }'));
ENDSEC;

DATA;
#10=SHAPE_REPRESENTATION_RELATIONSHIP('','',#645,#11);
#11=ADVANCED_BREP_SHAPE_REPRESENTATION('',(#643),#1333);
#12=CONICAL_SURFACE('',#693,0.004,0.110657221173896);
#13=CONICAL_SURFACE('',#695,0.004,0.110657221173896);
#14=CONICAL_SURFACE('',#697,0.004,0.110657221173896);
#15=CONICAL_SURFACE('',#699,0.004,0.110657221173898);
#16=B_SPLINE_SURFACE_WITH_KNOTS('',3,1,((#1012,#1013,#1014,#1015),(#1016,
#1017,#1018,#1019),(#1020,#1021,#1022,#1023),(#1024,#1025,#1026,#1027),
(#1028,#1029,#1030,#1031),(#1032,#1033,#1034,#1035),(#1036,#1037,#1038,
#1039),(#1040,#1041,#1042,#1043),(#1044,#1045,#1046,#1047),(#1048,#1049,
#1050,#1051),(#1052,#1053,#1054,#1055),(#1056,#1057,#1058,#1059),(#1060,
#1061,#1062,#1063),(#1064,#1065,#1066,#1067),(#1068,#1069,#1070,#1071),
(#1072,#1073,#1074,#1075),(#1076,#1077,#1078,#1079),(#1080,#1081,#1082,
#1083),(#1084,#1085,#1086,#1087),(#1088,#1089,#1090,#1091),(#1092,#1093,
#1094,#1095),(#1096,#1097,#1098,#1099),(#1100,#1101,#1102,#1103),(#1104,
#1105,#1106,#1107),(#1108,#1109,#1110,#1111),(#1112,#1113,#1114,#1115),
(#1116,#1117,#1118,#1119),(#1120,#1121,#1122,#1123),(#1124,#1125,#1126,
#1127),(#1128,#1129,#1130,#1131),(#1132,#1133,#1134,#1135),(#1136,#1137,
#1138,#1139),(#1140,#1141,#1142,#1143),(#1144,#1145,#1146,#1147)),
 .RULED_SURF.,.F.,.F.,.F.,(4,2,2,2,2,2,2,2,2,2,2,2,2,2,2,2,4),(2,1,1,2),
(0.574570120081383,0.601159487576296,0.62774885507121,0.654338222566123,
0.680927590061037,0.707516957555951,0.734106325050864,0.760695692545778,
0.787285060040691,0.813874427535605,0.840463795030519,0.867053162525432,
0.893642530020346,0.920231897515259,0.946821265010173,0.973410632505086,
1.),(-0.00600029730734369,0.,1.,1.00600131052081),.UNSPECIFIED.);
#17=B_SPLINE_SURFACE_WITH_KNOTS('',3,3,((#1154,#1155,#1156,#1157),(#1158,
#1159,#1160,#1161),(#1162,#1163,#1164,#1165),(#1166,#1167,#1168,#1169),
(#1170,#1171,#1172,#1173),(#1174,#1175,#1176,#1177),(#1178,#1179,#1180,
#1181),(#1182,#1183,#1184,#1185),(#1186,#1187,#1188,#1189),(#1190,#1191,
#1192,#1193),(#1194,#1195,#1196,#1197),(#1198,#1199,#1200,#1201),(#1202,
#1203,#1204,#1205),(#1206,#1207,#1208,#1209),(#1210,#1211,#1212,#1213),
(#1214,#1215,#1216,#1217),(#1218,#1219,#1220,#1221),(#1222,#1223,#1224,
#1225)),.UNSPECIFIED.,.T.,.F.,.F.,(4,2,2,2,2,2,2,2,4),(4,4),(0.,0.125,0.25,
0.375,0.5,0.625,0.75,0.875,1.),(-0.00600054573250512,1.00600037236365),
 .UNSPECIFIED.);
#18=B_SPLINE_SURFACE_WITH_KNOTS('',3,3,((#1229,#1230,#1231,#1232),(#1233,
#1234,#1235,#1236),(#1237,#1238,#1239,#1240),(#1241,#1242,#1243,#1244),
(#1245,#1246,#1247,#1248),(#1249,#1250,#1251,#1252),(#1253,#1254,#1255,
#1256),(#1257,#1258,#1259,#1260),(#1261,#1262,#1263,#1264),(#1265,#1266,
#1267,#1268),(#1269,#1270,#1271,#1272),(#1273,#1274,#1275,#1276),(#1277,
#1278,#1279,#1280),(#1281,#1282,#1283,#1284),(#1285,#1286,#1287,#1288),
(#1289,#1290,#1291,#1292),(#1293,#1294,#1295,#1296),(#1297,#1298,#1299,
#1300)),.UNSPECIFIED.,.T.,.F.,.F.,(4,2,2,2,2,2,2,2,4),(4,4),(0.,0.125,0.25,
0.375,0.5,0.625,0.75,0.875,1.),(-0.00600287304776399,1.00600392111481),
 .UNSPECIFIED.);
#19=CIRCLE('',#650,0.004);
#20=CIRCLE('',#651,0.004);
#21=CIRCLE('',#654,0.004);
#22=CIRCLE('',#655,0.004);
#23=CIRCLE('',#658,0.004);
#24=CIRCLE('',#659,0.004);
#25=CIRCLE('',#662,0.004);
#26=CIRCLE('',#663,0.004);
#27=CIRCLE('',#666,0.0025);
#28=CIRCLE('',#667,0.003);
#29=CIRCLE('',#668,0.003);
#30=CIRCLE('',#669,0.0038);
#31=CIRCLE('',#670,0.0038);
#32=CIRCLE('',#671,0.0038);
#33=CIRCLE('',#672,0.0038);
#34=CIRCLE('',#678,0.003);
#35=CIRCLE('',#680,0.002);
#36=CIRCLE('',#683,0.0025);
#37=CIRCLE('',#685,0.0025);
#38=CYLINDRICAL_SURFACE('',#649,0.004);
#39=CYLINDRICAL_SURFACE('',#653,0.004);
#40=CYLINDRICAL_SURFACE('',#657,0.004);
#41=CYLINDRICAL_SURFACE('',#661,0.004);
#42=CYLINDRICAL_SURFACE('',#677,0.003);
#43=ORIENTED_EDGE('',*,*,#213,.T.);
#44=ORIENTED_EDGE('',*,*,#214,.T.);
#45=ORIENTED_EDGE('',*,*,#215,.F.);
#46=ORIENTED_EDGE('',*,*,#216,.F.);
#47=ORIENTED_EDGE('',*,*,#217,.T.);
#48=ORIENTED_EDGE('',*,*,#218,.T.);
#49=ORIENTED_EDGE('',*,*,#219,.F.);
#50=ORIENTED_EDGE('',*,*,#220,.F.);
#51=ORIENTED_EDGE('',*,*,#219,.T.);
#52=ORIENTED_EDGE('',*,*,#221,.T.);
#53=ORIENTED_EDGE('',*,*,#222,.F.);
#54=ORIENTED_EDGE('',*,*,#223,.F.);
#55=ORIENTED_EDGE('',*,*,#222,.T.);
#56=ORIENTED_EDGE('',*,*,#224,.T.);
#57=ORIENTED_EDGE('',*,*,#225,.F.);
#58=ORIENTED_EDGE('',*,*,#226,.T.);
#59=ORIENTED_EDGE('',*,*,#225,.T.);
#60=ORIENTED_EDGE('',*,*,#227,.T.);
#61=ORIENTED_EDGE('',*,*,#228,.F.);
#62=ORIENTED_EDGE('',*,*,#229,.F.);
#63=ORIENTED_EDGE('',*,*,#228,.T.);
#64=ORIENTED_EDGE('',*,*,#230,.T.);
#65=ORIENTED_EDGE('',*,*,#231,.F.);
#66=ORIENTED_EDGE('',*,*,#232,.T.);
#67=ORIENTED_EDGE('',*,*,#231,.T.);
#68=ORIENTED_EDGE('',*,*,#233,.T.);
#69=ORIENTED_EDGE('',*,*,#234,.F.);
#70=ORIENTED_EDGE('',*,*,#235,.F.);
#71=ORIENTED_EDGE('',*,*,#234,.T.);
#72=ORIENTED_EDGE('',*,*,#236,.T.);
#73=ORIENTED_EDGE('',*,*,#237,.T.);
#74=ORIENTED_EDGE('',*,*,#238,.F.);
#75=ORIENTED_EDGE('',*,*,#215,.T.);
#76=ORIENTED_EDGE('',*,*,#239,.T.);
#77=ORIENTED_EDGE('',*,*,#217,.F.);
#78=ORIENTED_EDGE('',*,*,#240,.F.);
#79=ORIENTED_EDGE('',*,*,#241,.F.);
#80=ORIENTED_EDGE('',*,*,#242,.F.);
#81=ORIENTED_EDGE('',*,*,#243,.F.);
#82=ORIENTED_EDGE('',*,*,#216,.T.);
#83=ORIENTED_EDGE('',*,*,#240,.T.);
#84=ORIENTED_EDGE('',*,*,#220,.T.);
#85=ORIENTED_EDGE('',*,*,#223,.T.);
#86=ORIENTED_EDGE('',*,*,#226,.F.);
#87=ORIENTED_EDGE('',*,*,#229,.T.);
#88=ORIENTED_EDGE('',*,*,#232,.F.);
#89=ORIENTED_EDGE('',*,*,#235,.T.);
#90=ORIENTED_EDGE('',*,*,#238,.T.);
#91=ORIENTED_EDGE('',*,*,#244,.T.);
#92=ORIENTED_EDGE('',*,*,#245,.T.);
#93=ORIENTED_EDGE('',*,*,#246,.F.);
#94=ORIENTED_EDGE('',*,*,#247,.F.);
#95=ORIENTED_EDGE('',*,*,#248,.T.);
#96=ORIENTED_EDGE('',*,*,#249,.T.);
#97=ORIENTED_EDGE('',*,*,#250,.T.);
#98=ORIENTED_EDGE('',*,*,#251,.T.);
#99=ORIENTED_EDGE('',*,*,#252,.T.);
#100=ORIENTED_EDGE('',*,*,#253,.T.);
#101=ORIENTED_EDGE('',*,*,#254,.T.);
#102=ORIENTED_EDGE('',*,*,#255,.T.);
#103=ORIENTED_EDGE('',*,*,#256,.T.);
#104=ORIENTED_EDGE('',*,*,#257,.T.);
#105=ORIENTED_EDGE('',*,*,#258,.T.);
#106=ORIENTED_EDGE('',*,*,#259,.T.);
#107=ORIENTED_EDGE('',*,*,#260,.T.);
#108=ORIENTED_EDGE('',*,*,#261,.T.);
#109=ORIENTED_EDGE('',*,*,#262,.T.);
#110=ORIENTED_EDGE('',*,*,#263,.T.);
#111=ORIENTED_EDGE('',*,*,#264,.T.);
#112=ORIENTED_EDGE('',*,*,#247,.T.);
#113=ORIENTED_EDGE('',*,*,#265,.F.);
#114=ORIENTED_EDGE('',*,*,#266,.F.);
#115=ORIENTED_EDGE('',*,*,#267,.T.);
#116=ORIENTED_EDGE('',*,*,#248,.F.);
#117=ORIENTED_EDGE('',*,*,#267,.F.);
#118=ORIENTED_EDGE('',*,*,#268,.F.);
#119=ORIENTED_EDGE('',*,*,#269,.F.);
#120=ORIENTED_EDGE('',*,*,#270,.T.);
#121=ORIENTED_EDGE('',*,*,#249,.F.);
#122=ORIENTED_EDGE('',*,*,#270,.F.);
#123=ORIENTED_EDGE('',*,*,#271,.F.);
#124=ORIENTED_EDGE('',*,*,#272,.T.);
#125=ORIENTED_EDGE('',*,*,#273,.T.);
#126=ORIENTED_EDGE('',*,*,#250,.F.);
#127=ORIENTED_EDGE('',*,*,#273,.F.);
#128=ORIENTED_EDGE('',*,*,#274,.T.);
#129=ORIENTED_EDGE('',*,*,#275,.T.);
#130=ORIENTED_EDGE('',*,*,#246,.T.);
#131=ORIENTED_EDGE('',*,*,#275,.F.);
#132=ORIENTED_EDGE('',*,*,#276,.F.);
#133=ORIENTED_EDGE('',*,*,#265,.T.);
#134=ORIENTED_EDGE('',*,*,#272,.F.);
#135=ORIENTED_EDGE('',*,*,#277,.F.);
#136=ORIENTED_EDGE('',*,*,#278,.T.);
#137=ORIENTED_EDGE('',*,*,#274,.F.);
#138=ORIENTED_EDGE('',*,*,#278,.F.);
#139=ORIENTED_EDGE('',*,*,#279,.F.);
#140=ORIENTED_EDGE('',*,*,#280,.T.);
#141=ORIENTED_EDGE('',*,*,#276,.T.);
#142=ORIENTED_EDGE('',*,*,#280,.F.);
#143=ORIENTED_EDGE('',*,*,#281,.F.);
#144=ORIENTED_EDGE('',*,*,#268,.T.);
#145=ORIENTED_EDGE('',*,*,#266,.T.);
#146=ORIENTED_EDGE('',*,*,#269,.T.);
#147=ORIENTED_EDGE('',*,*,#281,.T.);
#148=ORIENTED_EDGE('',*,*,#279,.T.);
#149=ORIENTED_EDGE('',*,*,#277,.T.);
#150=ORIENTED_EDGE('',*,*,#271,.T.);
#151=ORIENTED_EDGE('',*,*,#282,.T.);
#152=ORIENTED_EDGE('',*,*,#245,.F.);
#153=ORIENTED_EDGE('',*,*,#282,.F.);
#154=ORIENTED_EDGE('',*,*,#283,.T.);
#155=ORIENTED_EDGE('',*,*,#244,.F.);
#156=ORIENTED_EDGE('',*,*,#283,.F.);
#157=ORIENTED_EDGE('',*,*,#253,.F.);
#158=ORIENTED_EDGE('',*,*,#284,.T.);
#159=ORIENTED_EDGE('',*,*,#213,.F.);
#160=ORIENTED_EDGE('',*,*,#285,.F.);
#161=ORIENTED_EDGE('',*,*,#237,.F.);
#162=ORIENTED_EDGE('',*,*,#286,.T.);
#163=ORIENTED_EDGE('',*,*,#257,.F.);
#164=ORIENTED_EDGE('',*,*,#287,.T.);
#165=ORIENTED_EDGE('',*,*,#287,.F.);
#166=ORIENTED_EDGE('',*,*,#256,.F.);
#167=ORIENTED_EDGE('',*,*,#288,.T.);
#168=ORIENTED_EDGE('',*,*,#241,.T.);
#169=ORIENTED_EDGE('',*,*,#288,.F.);
#170=ORIENTED_EDGE('',*,*,#255,.F.);
#171=ORIENTED_EDGE('',*,*,#289,.T.);
#172=ORIENTED_EDGE('',*,*,#242,.T.);
#173=ORIENTED_EDGE('',*,*,#289,.F.);
#174=ORIENTED_EDGE('',*,*,#254,.F.);
#175=ORIENTED_EDGE('',*,*,#285,.T.);
#176=ORIENTED_EDGE('',*,*,#243,.T.);
#177=ORIENTED_EDGE('',*,*,#286,.F.);
#178=ORIENTED_EDGE('',*,*,#236,.F.);
#179=ORIENTED_EDGE('',*,*,#290,.F.);
#180=ORIENTED_EDGE('',*,*,#258,.F.);
#181=ORIENTED_EDGE('',*,*,#290,.T.);
#182=ORIENTED_EDGE('',*,*,#233,.F.);
#183=ORIENTED_EDGE('',*,*,#291,.F.);
#184=ORIENTED_EDGE('',*,*,#259,.F.);
#185=ORIENTED_EDGE('',*,*,#291,.T.);
#186=ORIENTED_EDGE('',*,*,#230,.F.);
#187=ORIENTED_EDGE('',*,*,#292,.F.);
#188=ORIENTED_EDGE('',*,*,#260,.F.);
#189=ORIENTED_EDGE('',*,*,#292,.T.);
#190=ORIENTED_EDGE('',*,*,#227,.F.);
#191=ORIENTED_EDGE('',*,*,#293,.F.);
#192=ORIENTED_EDGE('',*,*,#261,.F.);
#193=ORIENTED_EDGE('',*,*,#293,.T.);
#194=ORIENTED_EDGE('',*,*,#224,.F.);
#195=ORIENTED_EDGE('',*,*,#294,.F.);
#196=ORIENTED_EDGE('',*,*,#262,.F.);
#197=ORIENTED_EDGE('',*,*,#294,.T.);
#198=ORIENTED_EDGE('',*,*,#221,.F.);
#199=ORIENTED_EDGE('',*,*,#295,.F.);
#200=ORIENTED_EDGE('',*,*,#263,.F.);
#201=ORIENTED_EDGE('',*,*,#295,.T.);
#202=ORIENTED_EDGE('',*,*,#218,.F.);
#203=ORIENTED_EDGE('',*,*,#296,.F.);
#204=ORIENTED_EDGE('',*,*,#264,.F.);
#205=ORIENTED_EDGE('',*,*,#296,.T.);
#206=ORIENTED_EDGE('',*,*,#239,.F.);
#207=ORIENTED_EDGE('',*,*,#297,.F.);
#208=ORIENTED_EDGE('',*,*,#251,.F.);
#209=ORIENTED_EDGE('',*,*,#284,.F.);
#210=ORIENTED_EDGE('',*,*,#252,.F.);
#211=ORIENTED_EDGE('',*,*,#297,.T.);
#212=ORIENTED_EDGE('',*,*,#214,.F.);
#213=EDGE_CURVE('',#298,#299,#352,.T.);
#214=EDGE_CURVE('',#299,#300,#353,.T.);
#215=EDGE_CURVE('',#301,#300,#354,.T.);
#216=EDGE_CURVE('',#298,#301,#355,.T.);
#217=EDGE_CURVE('',#302,#303,#356,.T.);
#218=EDGE_CURVE('',#303,#304,#357,.T.);
#219=EDGE_CURVE('',#305,#304,#358,.T.);
#220=EDGE_CURVE('',#302,#305,#359,.T.);
#221=EDGE_CURVE('',#304,#306,#19,.T.);
#222=EDGE_CURVE('',#307,#306,#360,.T.);
#223=EDGE_CURVE('',#305,#307,#20,.T.);
#224=EDGE_CURVE('',#306,#308,#361,.T.);
#225=EDGE_CURVE('',#309,#308,#362,.T.);
#226=EDGE_CURVE('',#309,#307,#363,.T.);
#227=EDGE_CURVE('',#308,#310,#21,.T.);
#228=EDGE_CURVE('',#311,#310,#364,.T.);
#229=EDGE_CURVE('',#309,#311,#22,.T.);
#230=EDGE_CURVE('',#310,#312,#365,.T.);
#231=EDGE_CURVE('',#313,#312,#366,.T.);
#232=EDGE_CURVE('',#313,#311,#367,.T.);
#233=EDGE_CURVE('',#312,#314,#23,.T.);
#234=EDGE_CURVE('',#315,#314,#368,.T.);
#235=EDGE_CURVE('',#313,#315,#24,.T.);
#236=EDGE_CURVE('',#314,#316,#369,.T.);
#237=EDGE_CURVE('',#316,#317,#370,.F.);
#238=EDGE_CURVE('',#315,#317,#371,.T.);
#239=EDGE_CURVE('',#300,#303,#25,.T.);
#240=EDGE_CURVE('',#301,#302,#26,.T.);
#241=EDGE_CURVE('',#318,#317,#372,.F.);
#242=EDGE_CURVE('',#319,#318,#373,.T.);
#243=EDGE_CURVE('',#298,#319,#374,.T.);
#244=EDGE_CURVE('',#320,#320,#27,.T.);
#245=EDGE_CURVE('',#321,#321,#28,.T.);
#246=EDGE_CURVE('',#322,#323,#29,.T.);
#247=EDGE_CURVE('',#324,#322,#375,.T.);
#248=EDGE_CURVE('',#324,#325,#376,.T.);
#249=EDGE_CURVE('',#325,#326,#377,.T.);
#250=EDGE_CURVE('',#326,#323,#378,.T.);
#251=EDGE_CURVE('',#327,#328,#30,.F.);
#252=EDGE_CURVE('',#328,#329,#379,.T.);
#253=EDGE_CURVE('',#329,#330,#380,.T.);
#254=EDGE_CURVE('',#330,#331,#381,.T.);
#255=EDGE_CURVE('',#331,#332,#382,.F.);
#256=EDGE_CURVE('',#332,#333,#383,.F.);
#257=EDGE_CURVE('',#333,#334,#384,.F.);
#258=EDGE_CURVE('',#334,#335,#385,.T.);
#259=EDGE_CURVE('',#335,#336,#31,.F.);
#260=EDGE_CURVE('',#336,#337,#386,.T.);
#261=EDGE_CURVE('',#337,#338,#32,.F.);
#262=EDGE_CURVE('',#338,#339,#387,.T.);
#263=EDGE_CURVE('',#339,#340,#33,.F.);
#264=EDGE_CURVE('',#340,#327,#388,.T.);
#265=EDGE_CURVE('',#341,#322,#389,.T.);
#266=EDGE_CURVE('',#342,#341,#390,.T.);
#267=EDGE_CURVE('',#342,#324,#391,.T.);
#268=EDGE_CURVE('',#343,#342,#392,.T.);
#269=EDGE_CURVE('',#344,#343,#393,.T.);
#270=EDGE_CURVE('',#344,#325,#394,.T.);
#271=EDGE_CURVE('',#345,#344,#395,.F.);
#272=EDGE_CURVE('',#345,#346,#396,.T.);
#273=EDGE_CURVE('',#346,#326,#397,.T.);
#274=EDGE_CURVE('',#346,#347,#398,.T.);
#275=EDGE_CURVE('',#347,#323,#399,.T.);
#276=EDGE_CURVE('',#341,#347,#34,.T.);
#277=EDGE_CURVE('',#348,#345,#400,.F.);
#278=EDGE_CURVE('',#348,#347,#401,.T.);
#279=EDGE_CURVE('',#349,#348,#35,.F.);
#280=EDGE_CURVE('',#349,#341,#402,.T.);
#281=EDGE_CURVE('',#343,#349,#403,.T.);
#282=EDGE_CURVE('',#350,#350,#36,.T.);
#283=EDGE_CURVE('',#351,#351,#37,.T.);
#284=EDGE_CURVE('',#329,#299,#404,.F.);
#285=EDGE_CURVE('',#330,#298,#405,.T.);
#286=EDGE_CURVE('',#316,#334,#406,.T.);
#287=EDGE_CURVE('',#333,#317,#407,.T.);
#288=EDGE_CURVE('',#332,#318,#408,.T.);
#289=EDGE_CURVE('',#331,#319,#409,.T.);
#290=EDGE_CURVE('',#335,#314,#410,.T.);
#291=EDGE_CURVE('',#336,#312,#411,.T.);
#292=EDGE_CURVE('',#337,#310,#412,.T.);
#293=EDGE_CURVE('',#338,#308,#413,.T.);
#294=EDGE_CURVE('',#339,#306,#414,.T.);
#295=EDGE_CURVE('',#340,#304,#415,.T.);
#296=EDGE_CURVE('',#327,#303,#416,.T.);
#297=EDGE_CURVE('',#328,#300,#417,.T.);
#298=VERTEX_POINT('',#880);
#299=VERTEX_POINT('',#881);
#300=VERTEX_POINT('',#883);
#301=VERTEX_POINT('',#885);
#302=VERTEX_POINT('',#889);
#303=VERTEX_POINT('',#890);
#304=VERTEX_POINT('',#892);
#305=VERTEX_POINT('',#894);
#306=VERTEX_POINT('',#898);
#307=VERTEX_POINT('',#900);
#308=VERTEX_POINT('',#904);
#309=VERTEX_POINT('',#906);
#310=VERTEX_POINT('',#910);
#311=VERTEX_POINT('',#912);
#312=VERTEX_POINT('',#916);
#313=VERTEX_POINT('',#918);
#314=VERTEX_POINT('',#922);
#315=VERTEX_POINT('',#924);
#316=VERTEX_POINT('',#928);
#317=VERTEX_POINT('',#930);
#318=VERTEX_POINT('',#937);
#319=VERTEX_POINT('',#939);
#320=VERTEX_POINT('',#943);
#321=VERTEX_POINT('',#945);
#322=VERTEX_POINT('',#947);
#323=VERTEX_POINT('',#948);
#324=VERTEX_POINT('',#950);
#325=VERTEX_POINT('',#952);
#326=VERTEX_POINT('',#954);
#327=VERTEX_POINT('',#957);
#328=VERTEX_POINT('',#958);
#329=VERTEX_POINT('',#960);
#330=VERTEX_POINT('',#962);
#331=VERTEX_POINT('',#964);
#332=VERTEX_POINT('',#966);
#333=VERTEX_POINT('',#968);
#334=VERTEX_POINT('',#970);
#335=VERTEX_POINT('',#972);
#336=VERTEX_POINT('',#974);
#337=VERTEX_POINT('',#976);
#338=VERTEX_POINT('',#978);
#339=VERTEX_POINT('',#980);
#340=VERTEX_POINT('',#982);
#341=VERTEX_POINT('',#986);
#342=VERTEX_POINT('',#988);
#343=VERTEX_POINT('',#992);
#344=VERTEX_POINT('',#994);
#345=VERTEX_POINT('',#998);
#346=VERTEX_POINT('',#1000);
#347=VERTEX_POINT('',#1004);
#348=VERTEX_POINT('',#1010);
#349=VERTEX_POINT('',#1149);
#350=VERTEX_POINT('',#1227);
#351=VERTEX_POINT('',#1302);
#352=LINE('',#879,#418);
#353=LINE('',#882,#419);
#354=LINE('',#884,#420);
#355=LINE('',#886,#421);
#356=LINE('',#888,#422);
#357=LINE('',#891,#423);
#358=LINE('',#893,#424);
#359=LINE('',#895,#425);
#360=LINE('',#899,#426);
#361=LINE('',#903,#427);
#362=LINE('',#905,#428);
#363=LINE('',#907,#429);
#364=LINE('',#911,#430);
#365=LINE('',#915,#431);
#366=LINE('',#917,#432);
#367=LINE('',#919,#433);
#368=LINE('',#923,#434);
#369=LINE('',#927,#435);
#370=LINE('',#929,#436);
#371=LINE('',#931,#437);
#372=LINE('',#936,#438);
#373=LINE('',#938,#439);
#374=LINE('',#940,#440);
#375=LINE('',#949,#441);
#376=LINE('',#951,#442);
#377=LINE('',#953,#443);
#378=LINE('',#955,#444);
#379=LINE('',#959,#445);
#380=LINE('',#961,#446);
#381=LINE('',#963,#447);
#382=LINE('',#965,#448);
#383=LINE('',#967,#449);
#384=LINE('',#969,#450);
#385=LINE('',#971,#451);
#386=LINE('',#975,#452);
#387=LINE('',#979,#453);
#388=LINE('',#983,#454);
#389=LINE('',#985,#455);
#390=LINE('',#987,#456);
#391=LINE('',#989,#457);
#392=LINE('',#991,#458);
#393=LINE('',#993,#459);
#394=LINE('',#995,#460);
#395=LINE('',#997,#461);
#396=LINE('',#999,#462);
#397=LINE('',#1001,#463);
#398=LINE('',#1003,#464);
#399=LINE('',#1005,#465);
#400=LINE('',#1009,#466);
#401=LINE('',#1011,#467);
#402=LINE('',#1150,#468);
#403=LINE('',#1152,#469);
#404=LINE('',#1305,#470);
#405=LINE('',#1306,#471);
#406=LINE('',#1308,#472);
#407=LINE('',#1309,#473);
#408=LINE('',#1311,#474);
#409=LINE('',#1313,#475);
#410=LINE('',#1316,#476);
#411=LINE('',#1318,#477);
#412=LINE('',#1320,#478);
#413=LINE('',#1322,#479);
#414=LINE('',#1324,#480);
#415=LINE('',#1326,#481);
#416=LINE('',#1328,#482);
#417=LINE('',#1330,#483);
#418=VECTOR('',#705,1.);
#419=VECTOR('',#706,1.);
#420=VECTOR('',#707,1.);
#421=VECTOR('',#708,1.);
#422=VECTOR('',#711,1.);
#423=VECTOR('',#712,1.);
#424=VECTOR('',#713,1.);
#425=VECTOR('',#714,1.);
#426=VECTOR('',#719,1.);
#427=VECTOR('',#724,1.);
#428=VECTOR('',#725,1.);
#429=VECTOR('',#726,1.);
#430=VECTOR('',#731,1.);
#431=VECTOR('',#736,1.);
#432=VECTOR('',#737,1.);
#433=VECTOR('',#738,1.);
#434=VECTOR('',#743,1.);
#435=VECTOR('',#748,1.);
#436=VECTOR('',#749,1.);
#437=VECTOR('',#750,1.);
#438=VECTOR('',#759,1.);
#439=VECTOR('',#760,1.);
#440=VECTOR('',#761,1.);
#441=VECTOR('',#770,1.);
#442=VECTOR('',#771,1.);
#443=VECTOR('',#772,1.);
#444=VECTOR('',#773,1.);
#445=VECTOR('',#776,1.);
#446=VECTOR('',#777,1.);
#447=VECTOR('',#778,1.);
#448=VECTOR('',#779,1.);
#449=VECTOR('',#780,1.);
#450=VECTOR('',#781,1.);
#451=VECTOR('',#782,1.);
#452=VECTOR('',#785,1.);
#453=VECTOR('',#788,1.);
#454=VECTOR('',#791,1.);
#455=VECTOR('',#794,1.);
#456=VECTOR('',#795,1.);
#457=VECTOR('',#796,1.);
#458=VECTOR('',#799,1.);
#459=VECTOR('',#800,1.);
#460=VECTOR('',#801,1.);
#461=VECTOR('',#804,1.);
#462=VECTOR('',#805,1.);
#463=VECTOR('',#806,1.);
#464=VECTOR('',#809,1.);
#465=VECTOR('',#810,1.);
#466=VECTOR('',#817,1.);
#467=VECTOR('',#818,1.);
#468=VECTOR('',#821,1.);
#469=VECTOR('',#824,1.);
#470=VECTOR('',#837,1.);
#471=VECTOR('',#838,1.);
#472=VECTOR('',#841,1.);
#473=VECTOR('',#842,1.);
#474=VECTOR('',#845,1.);
#475=VECTOR('',#848,1.);
#476=VECTOR('',#853,1.);
#477=VECTOR('',#856,1.);
#478=VECTOR('',#859,1.);
#479=VECTOR('',#862,1.);
#480=VECTOR('',#865,1.);
#481=VECTOR('',#868,1.);
#482=VECTOR('',#871,1.);
#483=VECTOR('',#874,1.);
#484=EDGE_LOOP('',(#43,#44,#45,#46));
#485=EDGE_LOOP('',(#47,#48,#49,#50));
#486=EDGE_LOOP('',(#51,#52,#53,#54));
#487=EDGE_LOOP('',(#55,#56,#57,#58));
#488=EDGE_LOOP('',(#59,#60,#61,#62));
#489=EDGE_LOOP('',(#63,#64,#65,#66));
#490=EDGE_LOOP('',(#67,#68,#69,#70));
#491=EDGE_LOOP('',(#71,#72,#73,#74));
#492=EDGE_LOOP('',(#75,#76,#77,#78));
#493=EDGE_LOOP('',(#79,#80,#81,#82,#83,#84,#85,#86,#87,#88,#89,#90));
#494=EDGE_LOOP('',(#91));
#495=EDGE_LOOP('',(#92));
#496=EDGE_LOOP('',(#93,#94,#95,#96,#97));
#497=EDGE_LOOP('',(#98,#99,#100,#101,#102,#103,#104,#105,#106,#107,#108,
#109,#110,#111));
#498=EDGE_LOOP('',(#112,#113,#114,#115));
#499=EDGE_LOOP('',(#116,#117,#118,#119,#120));
#500=EDGE_LOOP('',(#121,#122,#123,#124,#125));
#501=EDGE_LOOP('',(#126,#127,#128,#129));
#502=EDGE_LOOP('',(#130,#131,#132,#133));
#503=EDGE_LOOP('',(#134,#135,#136,#137));
#504=EDGE_LOOP('',(#138,#139,#140,#141));
#505=EDGE_LOOP('',(#142,#143,#144,#145));
#506=EDGE_LOOP('',(#146,#147,#148,#149,#150));
#507=EDGE_LOOP('',(#151));
#508=EDGE_LOOP('',(#152));
#509=EDGE_LOOP('',(#153));
#510=EDGE_LOOP('',(#154));
#511=EDGE_LOOP('',(#155));
#512=EDGE_LOOP('',(#156));
#513=EDGE_LOOP('',(#157,#158,#159,#160));
#514=EDGE_LOOP('',(#161,#162,#163,#164));
#515=EDGE_LOOP('',(#165,#166,#167,#168));
#516=EDGE_LOOP('',(#169,#170,#171,#172));
#517=EDGE_LOOP('',(#173,#174,#175,#176));
#518=EDGE_LOOP('',(#177,#178,#179,#180));
#519=EDGE_LOOP('',(#181,#182,#183,#184));
#520=EDGE_LOOP('',(#185,#186,#187,#188));
#521=EDGE_LOOP('',(#189,#190,#191,#192));
#522=EDGE_LOOP('',(#193,#194,#195,#196));
#523=EDGE_LOOP('',(#197,#198,#199,#200));
#524=EDGE_LOOP('',(#201,#202,#203,#204));
#525=EDGE_LOOP('',(#205,#206,#207,#208));
#526=EDGE_LOOP('',(#209,#210,#211,#212));
#527=FACE_BOUND('',#484,.T.);
#528=FACE_BOUND('',#485,.T.);
#529=FACE_BOUND('',#486,.T.);
#530=FACE_BOUND('',#487,.T.);
#531=FACE_BOUND('',#488,.T.);
#532=FACE_BOUND('',#489,.T.);
#533=FACE_BOUND('',#490,.T.);
#534=FACE_BOUND('',#491,.T.);
#535=FACE_BOUND('',#492,.T.);
#536=FACE_BOUND('',#493,.T.);
#537=FACE_BOUND('',#494,.T.);
#538=FACE_BOUND('',#495,.T.);
#539=FACE_BOUND('',#496,.T.);
#540=FACE_BOUND('',#497,.T.);
#541=FACE_BOUND('',#498,.T.);
#542=FACE_BOUND('',#499,.T.);
#543=FACE_BOUND('',#500,.T.);
#544=FACE_BOUND('',#501,.T.);
#545=FACE_BOUND('',#502,.T.);
#546=FACE_BOUND('',#503,.T.);
#547=FACE_BOUND('',#504,.T.);
#548=FACE_BOUND('',#505,.T.);
#549=FACE_BOUND('',#506,.T.);
#550=FACE_BOUND('',#507,.T.);
#551=FACE_BOUND('',#508,.T.);
#552=FACE_BOUND('',#509,.T.);
#553=FACE_BOUND('',#510,.T.);
#554=FACE_BOUND('',#511,.T.);
#555=FACE_BOUND('',#512,.T.);
#556=FACE_BOUND('',#513,.T.);
#557=FACE_BOUND('',#514,.T.);
#558=FACE_BOUND('',#515,.T.);
#559=FACE_BOUND('',#516,.T.);
#560=FACE_BOUND('',#517,.T.);
#561=FACE_BOUND('',#518,.T.);
#562=FACE_BOUND('',#519,.T.);
#563=FACE_BOUND('',#520,.T.);
#564=FACE_BOUND('',#521,.T.);
#565=FACE_BOUND('',#522,.T.);
#566=FACE_BOUND('',#523,.T.);
#567=FACE_BOUND('',#524,.T.);
#568=FACE_BOUND('',#525,.T.);
#569=FACE_BOUND('',#526,.T.);
#570=PLANE('',#647);
#571=PLANE('',#648);
#572=PLANE('',#652);
#573=PLANE('',#656);
#574=PLANE('',#660);
#575=PLANE('',#664);
#576=PLANE('',#665);
#577=PLANE('',#673);
#578=PLANE('',#674);
#579=PLANE('',#675);
#580=PLANE('',#676);
#581=PLANE('',#679);
#582=PLANE('',#681);
#583=PLANE('',#682);
#584=PLANE('',#684);
#585=PLANE('',#686);
#586=PLANE('',#687);
#587=PLANE('',#688);
#588=PLANE('',#689);
#589=PLANE('',#690);
#590=PLANE('',#691);
#591=PLANE('',#692);
#592=PLANE('',#694);
#593=PLANE('',#696);
#594=PLANE('',#698);
#595=PLANE('',#700);
#596=ADVANCED_FACE('',(#527),#570,.F.);
#597=ADVANCED_FACE('',(#528),#571,.F.);
#598=ADVANCED_FACE('',(#529),#38,.T.);
#599=ADVANCED_FACE('',(#530),#572,.T.);
#600=ADVANCED_FACE('',(#531),#39,.T.);
#601=ADVANCED_FACE('',(#532),#573,.T.);
#602=ADVANCED_FACE('',(#533),#40,.T.);
#603=ADVANCED_FACE('',(#534),#574,.F.);
#604=ADVANCED_FACE('',(#535),#41,.T.);
#605=ADVANCED_FACE('',(#536),#575,.T.);
#606=ADVANCED_FACE('',(#537,#538,#539,#540),#576,.F.);
#607=ADVANCED_FACE('',(#541),#577,.F.);
#608=ADVANCED_FACE('',(#542),#578,.T.);
#609=ADVANCED_FACE('',(#543),#579,.T.);
#610=ADVANCED_FACE('',(#544),#580,.T.);
#611=ADVANCED_FACE('',(#545),#42,.F.);
#612=ADVANCED_FACE('',(#546),#581,.T.);
#613=ADVANCED_FACE('',(#547),#16,.F.);
#614=ADVANCED_FACE('',(#548),#582,.F.);
#615=ADVANCED_FACE('',(#549),#583,.F.);
#616=ADVANCED_FACE('',(#550,#551),#17,.F.);
#617=ADVANCED_FACE('',(#552),#584,.F.);
#618=ADVANCED_FACE('',(#553,#554),#18,.F.);
#619=ADVANCED_FACE('',(#555),#585,.F.);
#620=ADVANCED_FACE('',(#556),#586,.F.);
#621=ADVANCED_FACE('',(#557),#587,.T.);
#622=ADVANCED_FACE('',(#558),#588,.T.);
#623=ADVANCED_FACE('',(#559),#589,.T.);
#624=ADVANCED_FACE('',(#560),#590,.F.);
#625=ADVANCED_FACE('',(#561),#591,.F.);
#626=ADVANCED_FACE('',(#562),#12,.T.);
#627=ADVANCED_FACE('',(#563),#592,.T.);
#628=ADVANCED_FACE('',(#564),#13,.T.);
#629=ADVANCED_FACE('',(#565),#593,.T.);
#630=ADVANCED_FACE('',(#566),#14,.T.);
#631=ADVANCED_FACE('',(#567),#594,.F.);
#632=ADVANCED_FACE('',(#568),#15,.T.);
#633=ADVANCED_FACE('',(#569),#595,.F.);
#634=CLOSED_SHELL('',(#596,#597,#598,#599,#600,#601,#602,#603,#604,#605,
#606,#607,#608,#609,#610,#611,#612,#613,#614,#615,#616,#617,#618,#619,#620,
#621,#622,#623,#624,#625,#626,#627,#628,#629,#630,#631,#632,#633));
#635=STYLED_ITEM('',(#636),#643);
#636=PRESENTATION_STYLE_ASSIGNMENT((#637));
#637=SURFACE_STYLE_USAGE(.BOTH.,#638);
#638=SURFACE_SIDE_STYLE('',(#639));
#639=SURFACE_STYLE_FILL_AREA(#640);
#640=FILL_AREA_STYLE('',(#641));
#641=FILL_AREA_STYLE_COLOUR('',#642);
#642=COLOUR_RGB('',0.647058823529412,0.647058823529412,0.647058823529412);
#643=MANIFOLD_SOLID_BREP('OpenPaw Case Top v9',#634);
#644=SHAPE_DEFINITION_REPRESENTATION(#1338,#645);
#645=SHAPE_REPRESENTATION('OpenPaw Case Top v9',(#646),#1333);
#646=AXIS2_PLACEMENT_3D('',#877,#701,#702);
#647=AXIS2_PLACEMENT_3D('',#878,#703,#704);
#648=AXIS2_PLACEMENT_3D('',#887,#709,#710);
#649=AXIS2_PLACEMENT_3D('',#896,#715,#716);
#650=AXIS2_PLACEMENT_3D('',#897,#717,#718);
#651=AXIS2_PLACEMENT_3D('',#901,#720,#721);
#652=AXIS2_PLACEMENT_3D('',#902,#722,#723);
#653=AXIS2_PLACEMENT_3D('',#908,#727,#728);
#654=AXIS2_PLACEMENT_3D('',#909,#729,#730);
#655=AXIS2_PLACEMENT_3D('',#913,#732,#733);
#656=AXIS2_PLACEMENT_3D('',#914,#734,#735);
#657=AXIS2_PLACEMENT_3D('',#920,#739,#740);
#658=AXIS2_PLACEMENT_3D('',#921,#741,#742);
#659=AXIS2_PLACEMENT_3D('',#925,#744,#745);
#660=AXIS2_PLACEMENT_3D('',#926,#746,#747);
#661=AXIS2_PLACEMENT_3D('',#932,#751,#752);
#662=AXIS2_PLACEMENT_3D('',#933,#753,#754);
#663=AXIS2_PLACEMENT_3D('',#934,#755,#756);
#664=AXIS2_PLACEMENT_3D('',#935,#757,#758);
#665=AXIS2_PLACEMENT_3D('',#941,#762,#763);
#666=AXIS2_PLACEMENT_3D('',#942,#764,#765);
#667=AXIS2_PLACEMENT_3D('',#944,#766,#767);
#668=AXIS2_PLACEMENT_3D('',#946,#768,#769);
#669=AXIS2_PLACEMENT_3D('',#956,#774,#775);
#670=AXIS2_PLACEMENT_3D('',#973,#783,#784);
#671=AXIS2_PLACEMENT_3D('',#977,#786,#787);
#672=AXIS2_PLACEMENT_3D('',#981,#789,#790);
#673=AXIS2_PLACEMENT_3D('',#984,#792,#793);
#674=AXIS2_PLACEMENT_3D('',#990,#797,#798);
#675=AXIS2_PLACEMENT_3D('',#996,#802,#803);
#676=AXIS2_PLACEMENT_3D('',#1002,#807,#808);
#677=AXIS2_PLACEMENT_3D('',#1006,#811,#812);
#678=AXIS2_PLACEMENT_3D('',#1007,#813,#814);
#679=AXIS2_PLACEMENT_3D('',#1008,#815,#816);
#680=AXIS2_PLACEMENT_3D('',#1148,#819,#820);
#681=AXIS2_PLACEMENT_3D('',#1151,#822,#823);
#682=AXIS2_PLACEMENT_3D('',#1153,#825,#826);
#683=AXIS2_PLACEMENT_3D('',#1226,#827,#828);
#684=AXIS2_PLACEMENT_3D('',#1228,#829,#830);
#685=AXIS2_PLACEMENT_3D('',#1301,#831,#832);
#686=AXIS2_PLACEMENT_3D('',#1303,#833,#834);
#687=AXIS2_PLACEMENT_3D('',#1304,#835,#836);
#688=AXIS2_PLACEMENT_3D('',#1307,#839,#840);
#689=AXIS2_PLACEMENT_3D('',#1310,#843,#844);
#690=AXIS2_PLACEMENT_3D('',#1312,#846,#847);
#691=AXIS2_PLACEMENT_3D('',#1314,#849,#850);
#692=AXIS2_PLACEMENT_3D('',#1315,#851,#852);
#693=AXIS2_PLACEMENT_3D('',#1317,#854,#855);
#694=AXIS2_PLACEMENT_3D('',#1319,#857,#858);
#695=AXIS2_PLACEMENT_3D('',#1321,#860,#861);
#696=AXIS2_PLACEMENT_3D('',#1323,#863,#864);
#697=AXIS2_PLACEMENT_3D('',#1325,#866,#867);
#698=AXIS2_PLACEMENT_3D('',#1327,#869,#870);
#699=AXIS2_PLACEMENT_3D('',#1329,#872,#873);
#700=AXIS2_PLACEMENT_3D('',#1331,#875,#876);
#701=DIRECTION('',(0.,0.,1.));
#702=DIRECTION('',(1.,0.,0.));
#703=DIRECTION('',(1.,0.,0.));
#704=DIRECTION('',(0.,0.,-1.));
#705=DIRECTION('',(0.,0.027767067240352,-0.999614420652718));
#706=DIRECTION('',(0.,-1.,0.));
#707=DIRECTION('',(0.,0.,-1.));
#708=DIRECTION('',(0.,-1.,0.));
#709=DIRECTION('',(0.,1.,0.));
#710=DIRECTION('',(0.,0.,1.));
#711=DIRECTION('',(0.,0.,-1.));
#712=DIRECTION('',(1.,0.,0.));
#713=DIRECTION('',(0.,0.,-1.));
#714=DIRECTION('',(1.,0.,0.));
#715=DIRECTION('',(0.,0.,-1.));
#716=DIRECTION('',(-1.,0.,0.));
#717=DIRECTION('',(0.,0.,1.));
#718=DIRECTION('',(1.,0.,0.));
#719=DIRECTION('',(0.,0.,-1.));
#720=DIRECTION('',(0.,0.,1.));
#721=DIRECTION('',(1.,0.,0.));
#722=DIRECTION('',(1.,0.,0.));
#723=DIRECTION('',(0.,0.,-1.));
#724=DIRECTION('',(0.,1.,0.));
#725=DIRECTION('',(0.,0.,-1.));
#726=DIRECTION('',(0.,-1.,0.));
#727=DIRECTION('',(0.,0.,-1.));
#728=DIRECTION('',(-1.,0.,0.));
#729=DIRECTION('',(0.,0.,1.));
#730=DIRECTION('',(1.,0.,0.));
#731=DIRECTION('',(0.,0.,-1.));
#732=DIRECTION('',(0.,0.,1.));
#733=DIRECTION('',(1.,0.,0.));
#734=DIRECTION('',(0.,1.,0.));
#735=DIRECTION('',(0.,0.,1.));
#736=DIRECTION('',(-1.,0.,0.));
#737=DIRECTION('',(0.,0.,-1.));
#738=DIRECTION('',(1.,0.,0.));
#739=DIRECTION('',(0.,0.,-1.));
#740=DIRECTION('',(-1.,0.,0.));
#741=DIRECTION('',(0.,0.,1.));
#742=DIRECTION('',(1.,0.,0.));
#743=DIRECTION('',(0.,0.,-1.));
#744=DIRECTION('',(0.,0.,1.));
#745=DIRECTION('',(1.,0.,0.));
#746=DIRECTION('',(1.,0.,0.));
#747=DIRECTION('',(0.,0.,-1.));
#748=DIRECTION('',(0.,-1.,0.));
#749=DIRECTION('',(0.,0.0277670672403541,-0.999614420652718));
#750=DIRECTION('',(0.,-1.,0.));
#751=DIRECTION('',(0.,0.,-1.));
#752=DIRECTION('',(-1.,0.,0.));
#753=DIRECTION('',(0.,0.,1.));
#754=DIRECTION('',(1.,0.,0.));
#755=DIRECTION('',(0.,0.,1.));
#756=DIRECTION('',(1.,0.,0.));
#757=DIRECTION('',(0.,0.,1.));
#758=DIRECTION('',(1.,0.,0.));
#759=DIRECTION('',(0.707106781186555,-0.707106781186541,0.));
#760=DIRECTION('',(0.,1.,0.));
#761=DIRECTION('',(0.70710678118655,0.707106781186546,0.));
#762=DIRECTION('',(0.,0.,1.));
#763=DIRECTION('',(1.,0.,0.));
#764=DIRECTION('',(0.,0.,1.));
#765=DIRECTION('',(1.,0.,0.));
#766=DIRECTION('',(0.,0.,1.));
#767=DIRECTION('',(1.,0.,0.));
#768=DIRECTION('',(0.,0.,-1.));
#769=DIRECTION('',(1.,0.,0.));
#770=DIRECTION('',(0.,-1.,0.));
#771=DIRECTION('',(-1.,-1.37989367407246E-16,0.));
#772=DIRECTION('',(0.,-1.,0.));
#773=DIRECTION('',(1.,0.,0.));
#774=DIRECTION('',(0.,0.,1.));
#775=DIRECTION('',(1.,0.,0.));
#776=DIRECTION('',(0.,1.,0.));
#777=DIRECTION('',(1.,0.,0.));
#778=DIRECTION('',(0.70710678118655,0.707106781186545,0.));
#779=DIRECTION('',(0.,-1.,0.));
#780=DIRECTION('',(0.70710678118655,-0.707106781186546,0.));
#781=DIRECTION('',(1.,0.,0.));
#782=DIRECTION('',(0.,1.,0.));
#783=DIRECTION('',(0.,0.,1.));
#784=DIRECTION('',(1.,0.,0.));
#785=DIRECTION('',(1.,0.,0.));
#786=DIRECTION('',(0.,0.,1.));
#787=DIRECTION('',(1.,0.,0.));
#788=DIRECTION('',(0.,-1.,0.));
#789=DIRECTION('',(0.,0.,1.));
#790=DIRECTION('',(1.,0.,0.));
#791=DIRECTION('',(-1.,0.,0.));
#792=DIRECTION('',(1.,0.,0.));
#793=DIRECTION('',(0.,0.,-1.));
#794=DIRECTION('',(0.,0.,-1.));
#795=DIRECTION('',(0.,-1.,0.));
#796=DIRECTION('',(0.,0.,-1.));
#797=DIRECTION('',(1.37989367407246E-16,-1.,0.));
#798=DIRECTION('',(1.,1.37989367407246E-16,0.));
#799=DIRECTION('',(0.70710678118655,-5.11097805561123E-16,-0.707106781186546));
#800=DIRECTION('',(1.,2.43392324435521E-16,0.));
#801=DIRECTION('',(0.,0.,-1.));
#802=DIRECTION('',(1.,0.,0.));
#803=DIRECTION('',(0.,0.,-1.));
#804=DIRECTION('',(0.,-1.,0.));
#805=DIRECTION('',(0.,-0.707106781186547,-0.707106781186548));
#806=DIRECTION('',(0.,0.,-1.));
#807=DIRECTION('',(0.,1.,0.));
#808=DIRECTION('',(0.,0.,1.));
#809=DIRECTION('',(1.,0.,0.));
#810=DIRECTION('',(0.,0.,-1.));
#811=DIRECTION('',(0.,0.,-1.));
#812=DIRECTION('',(-1.,0.,0.));
#813=DIRECTION('',(0.,0.,-1.));
#814=DIRECTION('',(1.,0.,0.));
#815=DIRECTION('',(-1.57260863249577E-16,0.707106781186548,-0.707106781186547));
#816=DIRECTION('',(0.,0.707106781186547,0.707106781186548));
#817=DIRECTION('',(1.,2.22400445638052E-16,0.));
#818=DIRECTION('',(0.379729819701192,-0.654142669465041,-0.654142669465041));
#819=DIRECTION('',(0.,0.,1.));
#820=DIRECTION('',(1.,0.,0.));
#821=DIRECTION('',(0.70006046480394,-0.140821487128163,-0.700060464803937));
#822=DIRECTION('',(0.707106781186546,0.,0.70710678118655));
#823=DIRECTION('',(0.70710678118655,0.,-0.707106781186546));
#824=DIRECTION('',(0.,-1.,0.));
#825=DIRECTION('',(0.,0.,1.));
#826=DIRECTION('',(1.,0.,0.));
#827=DIRECTION('',(0.,0.,1.));
#828=DIRECTION('',(1.,0.,0.));
#829=DIRECTION('',(0.,0.,1.));
#830=DIRECTION('',(1.,0.,0.));
#831=DIRECTION('',(0.,0.,1.));
#832=DIRECTION('',(1.,0.,0.));
#833=DIRECTION('',(0.,0.,1.));
#834=DIRECTION('',(1.,0.,0.));
#835=DIRECTION('',(0.,-0.999614420652718,-0.027767067240352));
#836=DIRECTION('',(0.,0.027767067240352,-0.999614420652718));
#837=DIRECTION('',(0.110389464932179,0.0275973662330427,-0.993505184389587));
#838=DIRECTION('',(-0.164337310699434,-0.0273895517832375,0.986023864196598));
#839=DIRECTION('',(0.,-0.999614420652718,-0.0277670672403541));
#840=DIRECTION('',(0.,0.0277670672403541,-0.999614420652718));
#841=DIRECTION('',(0.110389464932179,0.0275973662330449,-0.993505184389586));
#842=DIRECTION('',(-0.164337310699434,-0.0273895517832396,0.986023864196598));
#843=DIRECTION('',(-0.700516388748299,-0.700516388748303,-0.136211520034393));
#844=DIRECTION('',(0.70710678118655,-0.707106781186546,0.));
#845=DIRECTION('',(-0.164337310699438,-0.0273895517832363,0.986023864196597));
#846=DIRECTION('',(-0.986393923832143,0.,-0.164398987305362));
#847=DIRECTION('',(-0.164398987305362,0.,0.986393923832143));
#848=DIRECTION('',(-0.164337310699438,-0.0273895517832386,0.986023864196597));
#849=DIRECTION('',(0.703721207867681,-0.703721207867686,0.0977390566482905));
#850=DIRECTION('',(0.70710678118655,0.707106781186546,0.));
#851=DIRECTION('',(0.993883734673618,0.,0.11043152607485));
#852=DIRECTION('',(0.,-1.,0.));
#853=DIRECTION('',(-0.11043152607485,0.,0.993883734673618));
#854=DIRECTION('',(0.,0.,1.));
#855=DIRECTION('',(1.,0.,0.));
#856=DIRECTION('',(0.,0.110431526074848,0.993883734673619));
#857=DIRECTION('',(0.,0.993883734673619,-0.110431526074848));
#858=DIRECTION('',(-1.,0.,0.));
#859=DIRECTION('',(0.,0.110431526074848,0.993883734673619));
#860=DIRECTION('',(0.,0.,1.));
#861=DIRECTION('',(1.,0.,0.));
#862=DIRECTION('',(0.11043152607485,0.,0.993883734673619));
#863=DIRECTION('',(0.993883734673618,0.,-0.11043152607485));
#864=DIRECTION('',(0.,1.,0.));
#865=DIRECTION('',(0.11043152607485,-1.43676120577486E-15,0.993883734673619));
#866=DIRECTION('',(0.,0.,1.));
#867=DIRECTION('',(1.,0.,0.));
#868=DIRECTION('',(0.,-0.110431526074848,0.993883734673619));
#869=DIRECTION('',(0.,0.993883734673619,0.110431526074846));
#870=DIRECTION('',(1.,0.,0.));
#871=DIRECTION('',(0.,-0.110431526074846,0.993883734673619));
#872=DIRECTION('',(0.,0.,1.));
#873=DIRECTION('',(1.,0.,0.));
#874=DIRECTION('',(-0.11043152607485,0.,0.993883734673618));
#875=DIRECTION('',(0.993883734673618,0.,0.11043152607485));
#876=DIRECTION('',(0.,-1.,0.));
#877=CARTESIAN_POINT('',(0.,0.,0.));
#878=CARTESIAN_POINT('',(0.109625586130375,0.0138024071752417,0.0036));
#879=CARTESIAN_POINT('',(0.109625586130375,0.00166177494702277,0.00326276021588283));
#880=CARTESIAN_POINT('',(0.109625586130375,0.00165240717524174,0.0036));
#881=CARTESIAN_POINT('',(0.109625586130375,0.00170240717524173,0.0018));
#882=CARTESIAN_POINT('',(0.109625586130375,0.0138024071752417,0.0018));
#883=CARTESIAN_POINT('',(0.109625586130375,-0.00634759282475827,0.0018));
#884=CARTESIAN_POINT('',(0.109625586130375,-0.00634759282475827,0.0036));
#885=CARTESIAN_POINT('',(0.109625586130375,-0.00634759282475827,0.0036));
#886=CARTESIAN_POINT('',(0.109625586130375,0.0138024071752417,0.0036));
#887=CARTESIAN_POINT('',(0.131725586130375,-0.0103475928247583,0.0036));
#888=CARTESIAN_POINT('',(0.113625586130375,-0.0103475928247583,0.0036));
#889=CARTESIAN_POINT('',(0.113625586130375,-0.0103475928247583,0.0036));
#890=CARTESIAN_POINT('',(0.113625586130375,-0.0103475928247583,0.0018));
#891=CARTESIAN_POINT('',(0.131725586130375,-0.0103475928247583,0.0018));
#892=CARTESIAN_POINT('',(0.157825586130376,-0.0103475928247583,0.0018));
#893=CARTESIAN_POINT('',(0.157825586130376,-0.0103475928247583,0.0036));
#894=CARTESIAN_POINT('',(0.157825586130376,-0.0103475928247583,0.0036));
#895=CARTESIAN_POINT('',(0.131725586130375,-0.0103475928247583,0.0036));
#896=CARTESIAN_POINT('',(0.157825586130376,-0.00634759282475822,0.0036));
#897=CARTESIAN_POINT('',(0.157825586130376,-0.00634759282475822,0.0018));
#898=CARTESIAN_POINT('',(0.161825586130376,-0.00634759282475827,0.0018));
#899=CARTESIAN_POINT('',(0.161825586130376,-0.00634759282475827,0.0036));
#900=CARTESIAN_POINT('',(0.161825586130376,-0.00634759282475827,0.0036));
#901=CARTESIAN_POINT('',(0.157825586130376,-0.00634759282475822,0.0036));
#902=CARTESIAN_POINT('',(0.161825586130376,0.00825240717524174,0.0036));
#903=CARTESIAN_POINT('',(0.161825586130376,0.0178524071752418,0.0018));
#904=CARTESIAN_POINT('',(0.161825586130376,0.0178524071752418,0.0018));
#905=CARTESIAN_POINT('',(0.161825586130376,0.0178524071752418,0.0036));
#906=CARTESIAN_POINT('',(0.161825586130376,0.0178524071752418,0.0036));
#907=CARTESIAN_POINT('',(0.161825586130376,0.00825240717524174,0.0036));
#908=CARTESIAN_POINT('',(0.157825586130376,0.0178524071752417,0.0036));
#909=CARTESIAN_POINT('',(0.157825586130376,0.0178524071752417,0.0018));
#910=CARTESIAN_POINT('',(0.157825586130376,0.0218524071752417,0.0018));
#911=CARTESIAN_POINT('',(0.157825586130376,0.0218524071752417,0.0036));
#912=CARTESIAN_POINT('',(0.157825586130376,0.0218524071752417,0.0036));
#913=CARTESIAN_POINT('',(0.157825586130376,0.0178524071752417,0.0036));
#914=CARTESIAN_POINT('',(0.135725586130375,0.0218524071752417,0.0036));
#915=CARTESIAN_POINT('',(0.113625586130375,0.0218524071752417,0.0018));
#916=CARTESIAN_POINT('',(0.113625586130375,0.0218524071752417,0.0018));
#917=CARTESIAN_POINT('',(0.113625586130375,0.0218524071752417,0.0036));
#918=CARTESIAN_POINT('',(0.113625586130375,0.0218524071752417,0.0036));
#919=CARTESIAN_POINT('',(0.135725586130375,0.0218524071752417,0.0036));
#920=CARTESIAN_POINT('',(0.113625586130375,0.0178524071752418,0.0036));
#921=CARTESIAN_POINT('',(0.113625586130375,0.0178524071752418,0.0018));
#922=CARTESIAN_POINT('',(0.109625586130375,0.0178524071752418,0.0018));
#923=CARTESIAN_POINT('',(0.109625586130375,0.0178524071752418,0.0036));
#924=CARTESIAN_POINT('',(0.109625586130375,0.0178524071752418,0.0036));
#925=CARTESIAN_POINT('',(0.113625586130375,0.0178524071752418,0.0036));
#926=CARTESIAN_POINT('',(0.109625586130375,0.0138024071752417,0.0036));
#927=CARTESIAN_POINT('',(0.109625586130375,0.0138024071752417,0.0018));
#928=CARTESIAN_POINT('',(0.109625586130375,0.00970240717524173,0.0018));
#929=CARTESIAN_POINT('',(0.109625586130375,0.00965560686683772,0.00348481110254433));
#930=CARTESIAN_POINT('',(0.109625586130375,0.00965240717524173,0.0036));
#931=CARTESIAN_POINT('',(0.109625586130375,0.0138024071752417,0.0036));
#932=CARTESIAN_POINT('',(0.113625586130375,-0.00634759282475827,0.0036));
#933=CARTESIAN_POINT('',(0.113625586130375,-0.00634759282475827,0.0018));
#934=CARTESIAN_POINT('',(0.113625586130375,-0.00634759282475827,0.0036));
#935=CARTESIAN_POINT('',(0.135725586130375,0.00575240717524174,0.0036));
#936=CARTESIAN_POINT('',(0.109925586130375,0.00935240717524173,0.0036));
#937=CARTESIAN_POINT('',(0.110225586130375,0.00905240717524174,0.0036));
#938=CARTESIAN_POINT('',(0.110225586130375,0.00565240717524174,0.0036));
#939=CARTESIAN_POINT('',(0.110225586130375,0.00225240717524173,0.0036));
#940=CARTESIAN_POINT('',(0.109925586130375,0.00195240717524173,0.0036));
#941=CARTESIAN_POINT('',(0.135725586130375,0.00575240717524174,0.));
#942=CARTESIAN_POINT('',(0.116125586130375,0.0128524071752417,0.));
#943=CARTESIAN_POINT('',(0.118625586130375,0.0128524071752417,0.));
#944=CARTESIAN_POINT('',(0.150825586130375,0.0133524071752417,0.));
#945=CARTESIAN_POINT('',(0.153825586130376,0.0133524071752417,0.));
#946=CARTESIAN_POINT('',(0.157825586130376,-0.00638898023777426,0.));
#947=CARTESIAN_POINT('',(0.160825586130376,-0.00638898023777426,0.));
#948=CARTESIAN_POINT('',(0.158322186130516,-0.00934759282475827,0.));
#949=CARTESIAN_POINT('',(0.160825586130376,-0.00386828653126626,0.));
#950=CARTESIAN_POINT('',(0.160825586130376,-0.00134759282475826,0.));
#951=CARTESIAN_POINT('',(0.155325586130376,-0.00134759282475827,0.));
#952=CARTESIAN_POINT('',(0.149825586130375,-0.00134759282475827,0.));
#953=CARTESIAN_POINT('',(0.149825586130375,-0.00534759282475827,0.));
#954=CARTESIAN_POINT('',(0.149825586130375,-0.00934759282475827,0.));
#955=CARTESIAN_POINT('',(0.154073886130446,-0.00934759282475827,0.));
#956=CARTESIAN_POINT('',(0.113625586130375,-0.00634759282475827,0.));
#957=CARTESIAN_POINT('',(0.113625586130375,-0.0101475928247583,0.));
#958=CARTESIAN_POINT('',(0.109825586130375,-0.00634759282475827,0.));
#959=CARTESIAN_POINT('',(0.109825586130375,0.00575240717524174,0.));
#960=CARTESIAN_POINT('',(0.109825586130375,0.00175240717524173,0.));
#961=CARTESIAN_POINT('',(0.109925586130375,0.00175240717524173,0.));
#962=CARTESIAN_POINT('',(0.110225586130375,0.00175240717524173,0.));
#963=CARTESIAN_POINT('',(0.110525586130375,0.00205240717524173,0.));
#964=CARTESIAN_POINT('',(0.110825586130375,0.00235240717524173,0.));
#965=CARTESIAN_POINT('',(0.110825586130375,0.00575240717524173,0.));
#966=CARTESIAN_POINT('',(0.110825586130375,0.00915240717524173,0.));
#967=CARTESIAN_POINT('',(0.110525586130375,0.00945240717524174,0.));
#968=CARTESIAN_POINT('',(0.110225586130375,0.00975240717524174,-4.31667581827321E-19));
#969=CARTESIAN_POINT('',(0.109925586130375,0.00975240717524173,0.));
#970=CARTESIAN_POINT('',(0.109825586130375,0.00975240717524173,0.));
#971=CARTESIAN_POINT('',(0.109825586130375,0.00575240717524174,0.));
#972=CARTESIAN_POINT('',(0.109825586130375,0.0178524071752418,0.));
#973=CARTESIAN_POINT('',(0.113625586130375,0.0178524071752418,0.));
#974=CARTESIAN_POINT('',(0.113625586130375,0.0216524071752418,0.));
#975=CARTESIAN_POINT('',(0.157825586130376,0.0216524071752418,0.));
#976=CARTESIAN_POINT('',(0.157825586130376,0.0216524071752418,0.));
#977=CARTESIAN_POINT('',(0.157825586130376,0.0178524071752417,0.));
#978=CARTESIAN_POINT('',(0.161625586130376,0.0178524071752418,0.));
#979=CARTESIAN_POINT('',(0.161625586130376,-0.00634759282475827,0.));
#980=CARTESIAN_POINT('',(0.161625586130376,-0.00634759282475827,0.));
#981=CARTESIAN_POINT('',(0.157825586130376,-0.00634759282475822,0.));
#982=CARTESIAN_POINT('',(0.157825586130376,-0.0101475928247582,0.));
#983=CARTESIAN_POINT('',(0.135725586130375,-0.0101475928247583,0.));
#984=CARTESIAN_POINT('',(0.160825586130376,-0.00386828653126626,0.0008));
#985=CARTESIAN_POINT('',(0.160825586130376,-0.00638898023777426,0.0008));
#986=CARTESIAN_POINT('',(0.160825586130376,-0.00638898023777426,0.0008));
#987=CARTESIAN_POINT('',(0.160825586130376,-0.00386828653126626,0.0008));
#988=CARTESIAN_POINT('',(0.160825586130376,-0.00134759282475826,0.0008));
#989=CARTESIAN_POINT('',(0.160825586130376,-0.00134759282475826,0.0008));
#990=CARTESIAN_POINT('',(0.155325586130376,-0.00134759282475827,0.0008));
#991=CARTESIAN_POINT('',(0.159625586130376,-0.00134759282475826,0.002));
#992=CARTESIAN_POINT('',(0.159625586130376,-0.00134759282475826,0.002));
#993=CARTESIAN_POINT('',(0.154725586130376,-0.00134759282475827,0.002));
#994=CARTESIAN_POINT('',(0.149825586130375,-0.00134759282475827,0.002));
#995=CARTESIAN_POINT('',(0.149825586130375,-0.00134759282475827,0.0008));
#996=CARTESIAN_POINT('',(0.149825586130375,-0.00534759282475827,0.0008));
#997=CARTESIAN_POINT('',(0.149825586130375,-0.00474759282475827,0.002));
#998=CARTESIAN_POINT('',(0.149825586130375,-0.00814759282475827,0.002));
#999=CARTESIAN_POINT('',(0.149825586130375,-0.00814759282475827,0.002));
#1000=CARTESIAN_POINT('',(0.149825586130375,-0.00934759282475827,0.0008));
#1001=CARTESIAN_POINT('',(0.149825586130375,-0.00934759282475827,0.0008));
#1002=CARTESIAN_POINT('',(0.154073886130446,-0.00934759282475827,0.0008));
#1003=CARTESIAN_POINT('',(0.154073886130446,-0.00934759282475827,0.0008));
#1004=CARTESIAN_POINT('',(0.158322186130516,-0.00934759282475827,0.0008));
#1005=CARTESIAN_POINT('',(0.158322186130516,-0.00934759282475827,0.0008));
#1006=CARTESIAN_POINT('',(0.157825586130376,-0.00638898023777426,0.0008));
#1007=CARTESIAN_POINT('',(0.157825586130376,-0.00638898023777426,0.0008));
#1008=CARTESIAN_POINT('',(1.12841458318987E-18,-0.00507379641237916,0.00507379641237915));
#1009=CARTESIAN_POINT('',(0.153725586130376,-0.00814759282475827,0.002));
#1010=CARTESIAN_POINT('',(0.157625586130376,-0.00814759282475827,0.002));
#1011=CARTESIAN_POINT('',(0.157973886130445,-0.00874759282475827,0.0014));
#1012=CARTESIAN_POINT('',(0.159618385773607,-0.00614614442851391,0.00200720035676881));
#1013=CARTESIAN_POINT('',(0.159625586130376,-0.00614759282475826,0.002));
#1014=CARTESIAN_POINT('',(0.160825586130376,-0.00638898023777425,0.0008));
#1015=CARTESIAN_POINT('',(0.160832787703,-0.00639042887859557,0.000792798427375034));
#1016=CARTESIAN_POINT('',(0.159618385773607,-0.00621568040772822,0.00200720035676881));
#1017=CARTESIAN_POINT('',(0.159625586130375,-0.00621720685757347,0.002));
#1018=CARTESIAN_POINT('',(0.160825586130376,-0.00647160255949708,0.0008));
#1019=CARTESIAN_POINT('',(0.160832787703,-0.00647312926709948,0.000792798427375033));
#1020=CARTESIAN_POINT('',(0.159614748637078,-0.00628468608979876,0.00200720035676881));
#1021=CARTESIAN_POINT('',(0.159621950308259,-0.00628629761449104,0.002));
#1022=CARTESIAN_POINT('',(0.160822169366128,-0.00655487175502589,0.0008));
#1023=CARTESIAN_POINT('',(0.160829372253387,-0.0065564835518411,0.000792798427375034));
#1024=CARTESIAN_POINT('',(0.159600545253593,-0.00642100918368835,0.00200720035676881));
#1025=CARTESIAN_POINT('',(0.1596077484679,-0.00642280441086925,0.002));
#1026=CARTESIAN_POINT('',(0.160808224700724,-0.00672199411580245,0.0008));
#1027=CARTESIAN_POINT('',(0.16081542913137,-0.00672378964612638,0.000792798427375034));
#1028=CARTESIAN_POINT('',(0.159589979289123,-0.00648832678494341,0.00200720035676881));
#1029=CARTESIAN_POINT('',(0.159597182728997,-0.00649022063633586,0.002));
#1030=CARTESIAN_POINT('',(0.160797696554456,-0.00680584689540931,0.0008));
#1031=CARTESIAN_POINT('',(0.160804901210708,-0.00680774106659853,0.000792798427375034));
#1032=CARTESIAN_POINT('',(0.159562287990003,-0.00662070983917916,0.00200720035676881));
#1033=CARTESIAN_POINT('',(0.159569487465613,-0.00662281336705885,0.002));
#1034=CARTESIAN_POINT('',(0.160769340613031,-0.00697338397580513,0.0008));
#1035=CARTESIAN_POINT('',(0.160776541304348,-0.00697548785888768,0.000792798427375034));
#1036=CARTESIAN_POINT('',(0.159545162876364,-0.00668577549414419,0.00200720035676881));
#1037=CARTESIAN_POINT('',(0.159552358159708,-0.00668799007053816,0.002));
#1038=CARTESIAN_POINT('',(0.160751512630787,-0.0070570678479446,0.0008));
#1039=CARTESIAN_POINT('',(0.16075870912913,-0.00705928279829315,0.000792798427375034));
#1040=CARTESIAN_POINT('',(0.159504739365416,-0.00681314833167352,0.00200720035676881));
#1041=CARTESIAN_POINT('',(0.15951191899543,-0.00681559578768396,0.002));
#1042=CARTESIAN_POINT('',(0.1607084647075,-0.00722348491135274,0.0008));
#1043=CARTESIAN_POINT('',(0.160715645549871,-0.00722593278064194,0.000792798427375034));
#1044=CARTESIAN_POINT('',(0.159481441132518,-0.00687545571979872,0.00200720035676881));
#1045=CARTESIAN_POINT('',(0.159488609299764,-0.00687802500293106,0.002));
#1046=CARTESIAN_POINT('',(0.16068324464511,-0.00730621764085108,0.0008));
#1047=CARTESIAN_POINT('',(0.160690414022777,-0.00730878735783396,0.000792798427375034));
#1048=CARTESIAN_POINT('',(0.159429068054016,-0.00699685710659275,0.00200720035676881));
#1049=CARTESIAN_POINT('',(0.159436203711961,-0.00699967877690188,0.002));
#1050=CARTESIAN_POINT('',(0.160625421108896,-0.00746993386004168,0.0008));
#1051=CARTESIAN_POINT('',(0.160632557971772,-0.00747275600681959,0.000792798427375034));
#1052=CARTESIAN_POINT('',(0.159399993321344,-0.00705595130699138,0.00200720035676881));
#1053=CARTESIAN_POINT('',(0.159407107931786,-0.00705890353326789,0.002));
#1054=CARTESIAN_POINT('',(0.160592817585367,-0.00755091686615695,0.0008));
#1055=CARTESIAN_POINT('',(0.160599933397186,-0.00755386959094799,0.000792798427375034));
#1056=CARTESIAN_POINT('',(0.159336470358812,-0.00717051667123961,0.00200720035676881));
#1057=CARTESIAN_POINT('',(0.159343531554072,-0.00717373641000523,0.002));
#1058=CARTESIAN_POINT('',(0.160520339118588,-0.00771033294859411,0.0008));
#1059=CARTESIAN_POINT('',(0.160527401506206,-0.00771355323104657,0.000792798427375034));
#1060=CARTESIAN_POINT('',(0.159302022195559,-0.00722598802689284,0.00200720035676881));
#1061=CARTESIAN_POINT('',(0.159309051022898,-0.00722934471809568,0.002));
#1062=CARTESIAN_POINT('',(0.16048046420109,-0.00778876553191672,0.0008));
#1063=CARTESIAN_POINT('',(0.160487494215321,-0.00779212278993226,0.000792798427375034));
#1064=CARTESIAN_POINT('',(0.159228159259056,-0.00733293739869096,0.00200720035676881));
#1065=CARTESIAN_POINT('',(0.159235110890684,-0.00733657190323169,0.002));
#1066=CARTESIAN_POINT('',(0.160393658754559,-0.00794229264581633,0.0008));
#1067=CARTESIAN_POINT('',(0.160400611560044,-0.00794592776408147,0.000792798427375034));
#1068=CARTESIAN_POINT('',(0.159188744511144,-0.00738441559168911,0.00200720035676881));
#1069=CARTESIAN_POINT('',(0.159195651315444,-0.00738819095315675,0.002));
#1070=CARTESIAN_POINT('',(0.160346728328251,-0.0080173866870115,0.0008));
#1071=CARTESIAN_POINT('',(0.160353636298838,-0.00802116268598873,0.000792798427375034));
#1072=CARTESIAN_POINT('',(0.159105357704709,-0.00748304213065326,0.00200720035676881));
#1073=CARTESIAN_POINT('',(0.159112161848149,-0.00748710058392932,0.002));
#1074=CARTESIAN_POINT('',(0.160246129565238,-0.0081634759480453,0.0008));
#1075=CARTESIAN_POINT('',(0.160252934857629,-0.00816753508663398,0.000792798427375034));
#1076=CARTESIAN_POINT('',(0.15906138563513,-0.00753019063434474,0.00200720035676881));
#1077=CARTESIAN_POINT('',(0.159068131946168,-0.00753439131874317,0.002));
#1078=CARTESIAN_POINT('',(0.16019246140733,-0.00823447069535872,0.0008));
#1079=CARTESIAN_POINT('',(0.160199208857554,-0.008238672089087,0.000792798427375034));
#1080=CARTESIAN_POINT('',(0.158969295701691,-0.00761985004820487,0.00200720035676881));
#1081=CARTESIAN_POINT('',(0.158975913364679,-0.00762433412027277,0.002));
#1082=CARTESIAN_POINT('',(0.160078802546491,-0.00837164243488176,0.0008));
#1083=CARTESIAN_POINT('',(0.160085421326941,-0.00837612726413251,0.000792798427375034));
#1084=CARTESIAN_POINT('',(0.158921177795052,-0.00766236109343893,0.00200720035676881));
#1085=CARTESIAN_POINT('',(0.158927724644145,-0.0076669863186078,0.002));
#1086=CARTESIAN_POINT('',(0.160018812095088,-0.00843781898438454,0.0008));
#1087=CARTESIAN_POINT('',(0.160025360049686,-0.00844244499057144,0.000792798427375034));
#1088=CARTESIAN_POINT('',(0.158821210746477,-0.00774246219969737,0.00200720035676881));
#1089=CARTESIAN_POINT('',(0.158827603533272,-0.00774736639040105,0.002));
#1090=CARTESIAN_POINT('',(0.159893015206583,-0.00856469100824604,0.0008));
#1091=CARTESIAN_POINT('',(0.159899409072868,-0.00856959602707402,0.000792798427375034));
#1092=CARTESIAN_POINT('',(0.158769361534522,-0.00778005237006414,0.00200720035676881));
#1093=CARTESIAN_POINT('',(0.158775671075229,-0.00778509437015963,0.002));
#1094=CARTESIAN_POINT('',(0.15982720908804,-0.00862538608192447,0.0008));
#1095=CARTESIAN_POINT('',(0.159833519694179,-0.00863042893341483,0.000792798427375034));
#1096=CARTESIAN_POINT('',(0.158662351186418,-0.00785004901391317,0.00200720035676881));
#1097=CARTESIAN_POINT('',(0.158668482813608,-0.00785536131014343,0.002));
#1098=CARTESIAN_POINT('',(0.159690370042711,-0.00874070014556396,0.0008));
#1099=CARTESIAN_POINT('',(0.15969650270529,-0.00874601333883145,0.000792798427375034));
#1100=CARTESIAN_POINT('',(0.158607189957353,-0.00788245556827342,0.00200720035676881));
#1101=CARTESIAN_POINT('',(0.158613226919919,-0.00788790034869068,0.002));
#1102=CARTESIAN_POINT('',(0.159619337493629,-0.00879531878787258,0.0008));
#1103=CARTESIAN_POINT('',(0.1596253754756,-0.00880076448769842,0.000792798427375034));
#1104=CARTESIAN_POINT('',(0.158493982099277,-0.00794184008160437,0.00200720035676881));
#1105=CARTESIAN_POINT('',(0.158499819711689,-0.0079475428941575,0.002));
#1106=CARTESIAN_POINT('',(0.159472706905983,-0.0088979645584556,0.0008));
#1107=CARTESIAN_POINT('',(0.159478545504138,-0.00890366833398876,0.000792798427375034));
#1108=CARTESIAN_POINT('',(0.158435935358739,-0.00796881809045076,0.00200720035676881));
#1109=CARTESIAN_POINT('',(0.158441668288832,-0.00797464644895397,0.002));
#1110=CARTESIAN_POINT('',(0.159397109294474,-0.00894599140149095,0.0008));
#1111=CARTESIAN_POINT('',(0.159402843192633,-0.00895182074417394,0.000792798427375034));
#1112=CARTESIAN_POINT('',(0.158317393298587,-0.00801711645728103,0.00200720035676881));
#1113=CARTESIAN_POINT('',(0.158322908540203,-0.00802318779483889,0.002));
#1114=CARTESIAN_POINT('',(0.159242069930538,-0.0090350272499314,0.0008));
#1115=CARTESIAN_POINT('',(0.15924758610346,-0.00904109961269861,0.000792798427375034));
#1116=CARTESIAN_POINT('',(0.158256897853164,-0.00803843683171686,0.00200720035676881));
#1117=CARTESIAN_POINT('',(0.158262300092144,-0.00804462560099639,0.002));
#1118=CARTESIAN_POINT('',(0.159162628643157,-0.00907603603993538,0.0008));
#1119=CARTESIAN_POINT('',(0.159168031794362,-0.00908222585425385,0.000792798427375034));
#1120=CARTESIAN_POINT('',(0.158133909077883,-0.00807520571293139,0.00200720035676881));
#1121=CARTESIAN_POINT('',(0.158139078880031,-0.00808162054412646,0.002));
#1122=CARTESIAN_POINT('',(0.159000669878455,-0.00915070610214105,0.0008));
#1123=CARTESIAN_POINT('',(0.159005840553578,-0.009157122016548,0.000792798427375034));
#1124=CARTESIAN_POINT('',(0.158071415612426,-0.00809065420037935,0.00200720035676881));
#1125=CARTESIAN_POINT('',(0.158076465984111,-0.00809717766104638,0.002));
#1126=CARTESIAN_POINT('',(0.158918152891658,-0.00918436723397755,0.0008));
#1127=CARTESIAN_POINT('',(0.158923204116152,-0.00919089179619969,0.000792798427375034));
#1128=CARTESIAN_POINT('',(0.157944899304499,-0.00811547996345886,0.00200720035676881));
#1129=CARTESIAN_POINT('',(0.1579497063619,-0.00812221171252009,0.002));
#1130=CARTESIAN_POINT('',(0.158750842897977,-0.00924411429774613,0.0008));
#1131=CARTESIAN_POINT('',(0.158755650767099,-0.00925084718353417,0.000792798427375034));
#1132=CARTESIAN_POINT('',(0.157880876321435,-0.00812485718166185,0.00200720035676881));
#1133=CARTESIAN_POINT('',(0.157885559498851,-0.00813168858961489,0.002));
#1134=CARTESIAN_POINT('',(0.158666050393892,-0.00927020016714681,0.0008));
#1135=CARTESIAN_POINT('',(0.158670734362112,-0.00927703272865511,0.000792798427375034));
#1136=CARTESIAN_POINT('',(0.157751791460612,-0.00813735707706875,0.00200720035676881));
#1137=CARTESIAN_POINT('',(0.157756224374822,-0.00814437919428475,0.002));
#1138=CARTESIAN_POINT('',(0.158495006802224,-0.00931467407407434,0.0008));
#1139=CARTESIAN_POINT('',(0.158499440464978,-0.00932169737704887,0.000792798427375034));
#1140=CARTESIAN_POINT('',(0.157686729887744,-0.00814047965613955,0.00200720035676881));
#1141=CARTESIAN_POINT('',(0.157691036417802,-0.00814759282475827,0.002));
#1142=CARTESIAN_POINT('',(0.158408755863639,-0.00933306218642114,0.0008));
#1143=CARTESIAN_POINT('',(0.1584130631209,-0.00934017655617338,0.000792798427375034));
#1144=CARTESIAN_POINT('',(0.15762140632327,-0.00814039246798946,0.00200720035676881));
#1145=CARTESIAN_POINT('',(0.157625586130376,-0.00814759282475827,0.002));
#1146=CARTESIAN_POINT('',(0.158322186130516,-0.00934759282475827,0.0008));
#1147=CARTESIAN_POINT('',(0.158326366643426,-0.00935479439738324,0.000792798427375034));
#1148=CARTESIAN_POINT('',(0.157625586130376,-0.00614759282475827,0.002));
#1149=CARTESIAN_POINT('',(0.159625586130376,-0.00614759282475827,0.002));
#1150=CARTESIAN_POINT('',(0.159625586130376,-0.00614759282475827,0.002));
#1151=CARTESIAN_POINT('',(0.0808127930651872,0.,0.0808127930651876));
#1152=CARTESIAN_POINT('',(0.159625586130376,-0.00374759282475827,0.002));
#1153=CARTESIAN_POINT('',(0.135625586130375,0.0056524071752417,0.002));
#1154=CARTESIAN_POINT('',(0.153844116358328,0.0133574608737743,-1.68015280510143E-5));
#1155=CARTESIAN_POINT('',(0.152802399569184,0.0130733562949168,0.000927732662172066));
#1156=CARTESIAN_POINT('',(0.15176068278004,0.0127892517160593,0.00187226685239515));
#1157=CARTESIAN_POINT('',(0.150718965990896,0.0125051471372018,0.00281680104261823));
#1158=CARTESIAN_POINT('',(0.153845149711945,0.0141437828915075,-1.68015280510143E-5));
#1159=CARTESIAN_POINT('',(0.152745340717212,0.0138077418456668,0.000927732662172066));
#1160=CARTESIAN_POINT('',(0.151645531722478,0.013471700799826,0.00187226685239515));
#1161=CARTESIAN_POINT('',(0.150545722727744,0.0131356597539853,0.00281680104261823));
#1162=CARTESIAN_POINT('',(0.153522477096613,0.0149256882631465,-1.68015280510143E-5));
#1163=CARTESIAN_POINT('',(0.152386313935225,0.0145141161603137,0.000927732662172066));
#1164=CARTESIAN_POINT('',(0.151250150773838,0.0141025440574808,0.00187226685239515));
#1165=CARTESIAN_POINT('',(0.15011398761245,0.0136909719546479,0.00281680104261823));
#1166=CARTESIAN_POINT('',(0.152411911217442,0.0160391769077171,-1.68015280510143E-5));
#1167=CARTESIAN_POINT('',(0.151267042527031,0.0154720007638826,0.000927732662172066));
#1168=CARTESIAN_POINT('',(0.150122173836621,0.0149048246200481,0.00187226685239515));
#1169=CARTESIAN_POINT('',(0.14897730514621,0.0143376484762137,0.00281680104261823));
#1170=CARTESIAN_POINT('',(0.151630856632506,0.0163639035038451,-1.68015280510143E-5));
#1171=CARTESIAN_POINT('',(0.150513690186919,0.0157176125596554,0.000927732662172066));
#1172=CARTESIAN_POINT('',(0.149396523741332,0.0150713216154657,0.00187226685239515));
#1173=CARTESIAN_POINT('',(0.148279357295744,0.0144250306712759,0.00281680104261823));
#1174=CARTESIAN_POINT('',(0.150058212597039,0.0163659702110789,-1.68015280510143E-5));
#1175=CARTESIAN_POINT('',(0.149044919085418,0.0156034948557111,0.000927732662172066));
#1176=CARTESIAN_POINT('',(0.148031625573798,0.0148410195003432,0.00187226685239515));
#1177=CARTESIAN_POINT('',(0.147018332062177,0.0140785441449754,0.00281680104261823));
#1178=CARTESIAN_POINT('',(0.1492763072254,0.0160432975957473,-1.68015280510143E-5));
#1179=CARTESIAN_POINT('',(0.148338544770772,0.0152444680737248,0.000927732662172066));
#1180=CARTESIAN_POINT('',(0.147400782316144,0.0144456385517023,0.00187226685239515));
#1181=CARTESIAN_POINT('',(0.146463019861515,0.0136468090296798,0.00281680104261823));
#1182=CARTESIAN_POINT('',(0.14816281858083,0.0149327317165762,-1.68015280510143E-5));
#1183=CARTESIAN_POINT('',(0.147380660167203,0.0141251966655309,0.000927732662172066));
#1184=CARTESIAN_POINT('',(0.146598501753575,0.0133176616144856,0.00187226685239515));
#1185=CARTESIAN_POINT('',(0.145816343339948,0.0125101265634403,0.00281680104261823));
#1186=CARTESIAN_POINT('',(0.147838091984702,0.0141516771316399,-1.68015280510143E-5));
#1187=CARTESIAN_POINT('',(0.14713504837143,0.0133718443254179,0.000927732662172066));
#1188=CARTESIAN_POINT('',(0.146432004758158,0.012592011519196,0.00187226685239515));
#1189=CARTESIAN_POINT('',(0.145728961144886,0.0118121787129741,0.00281680104261823));
#1190=CARTESIAN_POINT('',(0.147836025277468,0.0125790330961735,-1.68015280510143E-5));
#1191=CARTESIAN_POINT('',(0.147249166075375,0.0119030732239181,0.000927732662172066));
#1192=CARTESIAN_POINT('',(0.146662306873281,0.0112271133516627,0.00187226685239515));
#1193=CARTESIAN_POINT('',(0.146075447671187,0.0105511534794073,0.00281680104261823));
#1194=CARTESIAN_POINT('',(0.1481586978928,0.0117971277245345,-1.68015280510143E-5));
#1195=CARTESIAN_POINT('',(0.147608192857361,0.0111966989092712,0.000927732662172066));
#1196=CARTESIAN_POINT('',(0.147057687821921,0.0105962700940079,0.00187226685239515));
#1197=CARTESIAN_POINT('',(0.146507182786482,0.00999584127874453,0.00281680104261823));
#1198=CARTESIAN_POINT('',(0.149269263771971,0.0106836390799638,-1.68015280510143E-5));
#1199=CARTESIAN_POINT('',(0.148727464265555,0.0102388143057022,0.000927732662172066));
#1200=CARTESIAN_POINT('',(0.148185664759139,0.00979398953144054,0.00187226685239515));
#1201=CARTESIAN_POINT('',(0.147643865252722,0.0093491647571789,0.00281680104261823));
#1202=CARTESIAN_POINT('',(0.150050318356907,0.0103589124838359,-1.68015280510143E-5));
#1203=CARTESIAN_POINT('',(0.149480816605667,0.00999320250992946,0.000927732662172066));
#1204=CARTESIAN_POINT('',(0.148911314854428,0.00962749253602302,0.00187226685239515));
#1205=CARTESIAN_POINT('',(0.148341813103188,0.00926178256211659,0.00281680104261823));
#1206=CARTESIAN_POINT('',(0.151622962392374,0.0103568457766021,-1.68015280510143E-5));
#1207=CARTESIAN_POINT('',(0.150949587707168,0.0101073202138738,0.000927732662172066));
#1208=CARTESIAN_POINT('',(0.150276213021962,0.00985779465114545,0.00187226685239515));
#1209=CARTESIAN_POINT('',(0.149602838336755,0.00960826908841713,0.00281680104261823));
#1210=CARTESIAN_POINT('',(0.152404867764012,0.0106795183919336,-1.68015280510143E-5));
#1211=CARTESIAN_POINT('',(0.151655962021814,0.0104663469958601,0.000927732662172066));
#1212=CARTESIAN_POINT('',(0.150907056279617,0.0102531755997865,0.00187226685239515));
#1213=CARTESIAN_POINT('',(0.150158150537419,0.0100400042037129,0.00281680104261823));
#1214=CARTESIAN_POINT('',(0.153518356408583,0.0117900842711048,-1.68015280510143E-5));
#1215=CARTESIAN_POINT('',(0.152613846625383,0.0115856184040539,0.000927732662172066));
#1216=CARTESIAN_POINT('',(0.151709336842183,0.011381152537003,0.00187226685239515));
#1217=CARTESIAN_POINT('',(0.150804827058983,0.0111766866699521,0.00281680104261823));
#1218=CARTESIAN_POINT('',(0.153843083004711,0.0125711388560411,-1.68015280510143E-5));
#1219=CARTESIAN_POINT('',(0.152859458421157,0.0123389707441669,0.000927732662172066));
#1220=CARTESIAN_POINT('',(0.151875833837602,0.0121068026322926,0.00187226685239515));
#1221=CARTESIAN_POINT('',(0.150892209254047,0.0118746345204183,0.00281680104261823));
#1222=CARTESIAN_POINT('',(0.153844116358328,0.0133574608737743,-1.68015280510143E-5));
#1223=CARTESIAN_POINT('',(0.152802399569184,0.0130733562949168,0.000927732662172066));
#1224=CARTESIAN_POINT('',(0.15176068278004,0.0127892517160593,0.00187226685239515));
#1225=CARTESIAN_POINT('',(0.150718965990896,0.0125051471372018,0.00281680104261823));
#1226=CARTESIAN_POINT('',(0.148325586130375,0.0118524071752417,0.0028));
#1227=CARTESIAN_POINT('',(0.150825586130375,0.0118524071752417,0.0028));
#1228=CARTESIAN_POINT('',(0.148325586130375,0.0118524071752417,0.0028));
#1229=CARTESIAN_POINT('',(0.118637591876471,0.0128524071752417,-1.44068953146336E-5));
#1230=CARTESIAN_POINT('',(0.117962920680362,0.0128524071752417,0.000795198540015422));
#1231=CARTESIAN_POINT('',(0.117288249484254,0.0128524071752417,0.00160480397534548));
#1232=CARTESIAN_POINT('',(0.116613578288146,0.0128524071752417,0.00241440941067553));
#1233=CARTESIAN_POINT('',(0.118637591876471,0.0135069056447396,-1.44068953146336E-5));
#1234=CARTESIAN_POINT('',(0.117962920680362,0.0135069056447396,0.000795198540015422));
#1235=CARTESIAN_POINT('',(0.117288249484254,0.0135069056447396,0.00160480397534548));
#1236=CARTESIAN_POINT('',(0.116613578288146,0.0135069056447396,0.00241440941067553));
#1237=CARTESIAN_POINT('',(0.118368159135496,0.0141573738221499,-1.44068953146336E-5));
#1238=CARTESIAN_POINT('',(0.117693487939387,0.0141573738221499,0.000795198540015422));
#1239=CARTESIAN_POINT('',(0.117018816743279,0.0141573738221499,0.00160480397534548));
#1240=CARTESIAN_POINT('',(0.11634414554717,0.0141573738221499,0.00241440941067553));
#1241=CARTESIAN_POINT('',(0.117442558523379,0.0150829744342663,-1.44068953146336E-5));
#1242=CARTESIAN_POINT('',(0.11676788732727,0.0150829744342663,0.000795198540015422));
#1243=CARTESIAN_POINT('',(0.116093216131162,0.0150829744342663,0.00160480397534548));
#1244=CARTESIAN_POINT('',(0.115418544935054,0.0150829744342663,0.00241440941067553));
#1245=CARTESIAN_POINT('',(0.116792090345969,0.0153524071752418,-1.44068953146336E-5));
#1246=CARTESIAN_POINT('',(0.11611741914986,0.0153524071752418,0.000795198540015422));
#1247=CARTESIAN_POINT('',(0.115442747953752,0.0153524071752418,0.00160480397534548));
#1248=CARTESIAN_POINT('',(0.114768076757644,0.0153524071752418,0.00241440941067553));
#1249=CARTESIAN_POINT('',(0.115483093406973,0.0153524071752418,-1.44068953146336E-5));
#1250=CARTESIAN_POINT('',(0.114808422210864,0.0153524071752418,0.000795198540015422));
#1251=CARTESIAN_POINT('',(0.114133751014756,0.0153524071752418,0.00160480397534548));
#1252=CARTESIAN_POINT('',(0.113459079818648,0.0153524071752418,0.00241440941067553));
#1253=CARTESIAN_POINT('',(0.114832625229562,0.0150829744342663,-1.44068953146336E-5));
#1254=CARTESIAN_POINT('',(0.114157954033454,0.0150829744342663,0.000795198540015422));
#1255=CARTESIAN_POINT('',(0.113483282837346,0.0150829744342663,0.00160480397534548));
#1256=CARTESIAN_POINT('',(0.112808611641237,0.0150829744342663,0.00241440941067553));
#1257=CARTESIAN_POINT('',(0.113907024617446,0.0141573738221499,-1.44068953146336E-5));
#1258=CARTESIAN_POINT('',(0.113232353421338,0.0141573738221499,0.000795198540015422));
#1259=CARTESIAN_POINT('',(0.11255768222523,0.0141573738221499,0.00160480397534548));
#1260=CARTESIAN_POINT('',(0.111883011029121,0.0141573738221499,0.00241440941067553));
#1261=CARTESIAN_POINT('',(0.113637591876471,0.0135069056447396,-1.44068953146336E-5));
#1262=CARTESIAN_POINT('',(0.112962920680362,0.0135069056447396,0.000795198540015422));
#1263=CARTESIAN_POINT('',(0.112288249484254,0.0135069056447396,0.00160480397534548));
#1264=CARTESIAN_POINT('',(0.111613578288146,0.0135069056447396,0.00241440941067553));
#1265=CARTESIAN_POINT('',(0.113637591876471,0.0121979087057438,-1.44068953146336E-5));
#1266=CARTESIAN_POINT('',(0.112962920680362,0.0121979087057438,0.000795198540015422));
#1267=CARTESIAN_POINT('',(0.112288249484254,0.0121979087057438,0.00160480397534548));
#1268=CARTESIAN_POINT('',(0.111613578288146,0.0121979087057438,0.00241440941067553));
#1269=CARTESIAN_POINT('',(0.113907024617446,0.0115474405283335,-1.44068953146336E-5));
#1270=CARTESIAN_POINT('',(0.113232353421338,0.0115474405283335,0.000795198540015422));
#1271=CARTESIAN_POINT('',(0.11255768222523,0.0115474405283335,0.00160480397534548));
#1272=CARTESIAN_POINT('',(0.111883011029121,0.0115474405283335,0.00241440941067553));
#1273=CARTESIAN_POINT('',(0.114832625229562,0.0106218399162172,-1.44068953146336E-5));
#1274=CARTESIAN_POINT('',(0.114157954033454,0.0106218399162172,0.000795198540015422));
#1275=CARTESIAN_POINT('',(0.113483282837346,0.0106218399162172,0.00160480397534548));
#1276=CARTESIAN_POINT('',(0.112808611641237,0.0106218399162172,0.00241440941067553));
#1277=CARTESIAN_POINT('',(0.115483093406973,0.0103524071752417,-1.44068953146336E-5));
#1278=CARTESIAN_POINT('',(0.114808422210864,0.0103524071752417,0.000795198540015422));
#1279=CARTESIAN_POINT('',(0.114133751014756,0.0103524071752417,0.00160480397534548));
#1280=CARTESIAN_POINT('',(0.113459079818648,0.0103524071752417,0.00241440941067553));
#1281=CARTESIAN_POINT('',(0.116792090345969,0.0103524071752417,-1.44068953146336E-5));
#1282=CARTESIAN_POINT('',(0.11611741914986,0.0103524071752417,0.000795198540015422));
#1283=CARTESIAN_POINT('',(0.115442747953752,0.0103524071752417,0.00160480397534548));
#1284=CARTESIAN_POINT('',(0.114768076757644,0.0103524071752417,0.00241440941067553));
#1285=CARTESIAN_POINT('',(0.117442558523379,0.0106218399162172,-1.44068953146336E-5));
#1286=CARTESIAN_POINT('',(0.11676788732727,0.0106218399162172,0.000795198540015422));
#1287=CARTESIAN_POINT('',(0.116093216131162,0.0106218399162172,0.00160480397534548));
#1288=CARTESIAN_POINT('',(0.115418544935054,0.0106218399162172,0.00241440941067553));
#1289=CARTESIAN_POINT('',(0.118368159135496,0.0115474405283335,-1.44068953146336E-5));
#1290=CARTESIAN_POINT('',(0.117693487939387,0.0115474405283335,0.000795198540015422));
#1291=CARTESIAN_POINT('',(0.117018816743279,0.0115474405283335,0.00160480397534548));
#1292=CARTESIAN_POINT('',(0.11634414554717,0.0115474405283335,0.00241440941067553));
#1293=CARTESIAN_POINT('',(0.118637591876471,0.0121979087057438,-1.44068953146336E-5));
#1294=CARTESIAN_POINT('',(0.117962920680362,0.0121979087057438,0.000795198540015422));
#1295=CARTESIAN_POINT('',(0.117288249484254,0.0121979087057438,0.00160480397534548));
#1296=CARTESIAN_POINT('',(0.116613578288146,0.0121979087057438,0.00241440941067553));
#1297=CARTESIAN_POINT('',(0.118637591876471,0.0128524071752417,-1.44068953146336E-5));
#1298=CARTESIAN_POINT('',(0.117962920680362,0.0128524071752417,0.000795198540015422));
#1299=CARTESIAN_POINT('',(0.117288249484254,0.0128524071752417,0.00160480397534548));
#1300=CARTESIAN_POINT('',(0.116613578288146,0.0128524071752417,0.00241440941067553));
#1301=CARTESIAN_POINT('',(0.114125586130375,0.0128524071752417,0.0024));
#1302=CARTESIAN_POINT('',(0.116625586130375,0.0128524071752417,0.0024));
#1303=CARTESIAN_POINT('',(0.114125586130375,0.0128524071752417,0.0024));
#1304=CARTESIAN_POINT('',(0.,0.00175105605174501,4.86404458818036E-5));
#1305=CARTESIAN_POINT('',(0.109662448278128,0.00171162271218004,0.00146824067022088));
#1306=CARTESIAN_POINT('',(0.110225586130375,0.00175240717524173,0.));
#1307=CARTESIAN_POINT('',(0.,0.00974488797155997,0.000270691332543341));
#1308=CARTESIAN_POINT('',(0.109638076610192,0.00970552979519603,0.00168758568164508));
#1309=CARTESIAN_POINT('',(0.110225586130375,0.00975240717524174,0.));
#1310=CARTESIAN_POINT('',(0.0588759861128659,0.0588759861128662,0.0114481084108352));
#1311=CARTESIAN_POINT('',(0.110825586130375,0.00915240717524173,0.));
#1312=CARTESIAN_POINT('',(0.107830300018743,0.,0.0179717166697911));
#1313=CARTESIAN_POINT('',(0.110825586130375,0.00235240717524173,0.));
#1314=CARTESIAN_POINT('',(0.0537184715039557,-0.0537184715039561,0.00746089881999396));
#1315=CARTESIAN_POINT('',(0.109625586130375,0.0138024071752417,0.0018));
#1316=CARTESIAN_POINT('',(0.109825586130375,0.0178524071752418,0.));
#1317=CARTESIAN_POINT('',(0.113625586130375,0.0178524071752418,0.0018));
#1318=CARTESIAN_POINT('',(0.113625586130375,0.0216524071752418,0.));
#1319=CARTESIAN_POINT('',(0.135725586130375,0.0216524071752418,0.));
#1320=CARTESIAN_POINT('',(0.157825586130376,0.0216524071752418,0.));
#1321=CARTESIAN_POINT('',(0.157825586130376,0.0178524071752417,0.0018));
#1322=CARTESIAN_POINT('',(0.161625586130376,0.0178524071752418,0.));
#1323=CARTESIAN_POINT('',(0.161625586130376,0.00575240717524174,0.));
#1324=CARTESIAN_POINT('',(0.161625586130376,-0.00634759282475827,0.));
#1325=CARTESIAN_POINT('',(0.157825586130376,-0.00634759282475822,0.0018));
#1326=CARTESIAN_POINT('',(0.157825586130376,-0.0101475928247582,0.));
#1327=CARTESIAN_POINT('',(0.131725586130375,-0.0103475928247583,0.0018));
#1328=CARTESIAN_POINT('',(0.113625586130375,-0.0101475928247583,0.));
#1329=CARTESIAN_POINT('',(0.113625586130375,-0.00634759282475827,0.0018));
#1330=CARTESIAN_POINT('',(0.109825586130375,-0.00634759282475827,0.));
#1331=CARTESIAN_POINT('',(0.109625586130375,0.0138024071752417,0.0018));
#1332=MECHANICAL_DESIGN_GEOMETRIC_PRESENTATION_REPRESENTATION('',(#635),
#1333);
#1333=(
GEOMETRIC_REPRESENTATION_CONTEXT(3)
GLOBAL_UNCERTAINTY_ASSIGNED_CONTEXT((#1334))
GLOBAL_UNIT_ASSIGNED_CONTEXT((#1337,#1336,#1335))
REPRESENTATION_CONTEXT('OpenPaw Case Top v9','TOP_LEVEL_ASSEMBLY_PART')
);
#1334=UNCERTAINTY_MEASURE_WITH_UNIT(LENGTH_MEASURE(1.E-8),#1337,
'DISTANCE_ACCURACY_VALUE','Maximum Tolerance applied to model');
#1335=(
NAMED_UNIT(*)
SI_UNIT($,.STERADIAN.)
SOLID_ANGLE_UNIT()
);
#1336=(
NAMED_UNIT(*)
PLANE_ANGLE_UNIT()
SI_UNIT($,.RADIAN.)
);
#1337=(
LENGTH_UNIT()
NAMED_UNIT(*)
SI_UNIT($,.METRE.)
);
#1338=PRODUCT_DEFINITION_SHAPE('','',#1339);
#1339=PRODUCT_DEFINITION('','',#1341,#1340);
#1340=PRODUCT_DEFINITION_CONTEXT('',#1347,'design');
#1341=PRODUCT_DEFINITION_FORMATION_WITH_SPECIFIED_SOURCE('','',#1343,
 .NOT_KNOWN.);
#1342=PRODUCT_RELATED_PRODUCT_CATEGORY('','',(#1343));
#1343=PRODUCT('OpenPaw Case Top v9','OpenPaw Case Top v9',
'OpenPaw Case Top v9',(#1345));
#1344=PRODUCT_CATEGORY('','');
#1345=PRODUCT_CONTEXT('',#1347,'mechanical');
#1346=APPLICATION_PROTOCOL_DEFINITION('international standard',
'ap242_managed_model_based_3d_engineering',2020,#1347);
#1347=APPLICATION_CONTEXT('managed model based 3d engineering');
ENDSEC;
END-ISO-10303-21;
